<svg width="32" height="32" viewBox="0 0 32 32" fill="none" xmlns="http://www.w3.org/2000/svg">
<path d="M27.2268 12.9011L16.9468 2.3944C16.8229 2.26943 16.6754 2.17023 16.5129 2.10254C16.3504 2.03485 16.1762 2 16.0002 2C15.8241 2 15.6499 2.03485 15.4874 2.10254C15.3249 2.17023 15.1774 2.26943 15.0535 2.3944L4.77349 12.9144C4.52474 13.1652 4.32828 13.4628 4.19552 13.7901C4.06277 14.1175 3.99636 14.4679 4.00015 14.8211V25.9944C3.99912 26.6769 4.25985 27.3339 4.72865 27.83C5.19746 28.3261 5.83863 28.6235 6.52015 28.6611H25.4802C26.1617 28.6235 26.8029 28.3261 27.2717 27.83C27.7405 27.3339 28.0012 26.6769 28.0002 25.9944V14.8211C28.0012 14.105 27.7239 13.4165 27.2268 12.9011ZM13.3335 25.9944V17.9944H18.6668V25.9944H13.3335ZM25.3335 25.9944H21.3335V16.6611C21.3335 16.3074 21.193 15.9683 20.943 15.7183C20.6929 15.4682 20.3538 15.3277 20.0002 15.3277H12.0002C11.6465 15.3277 11.3074 15.4682 11.0573 15.7183C10.8073 15.9683 10.6668 16.3074 10.6668 16.6611V25.9944H6.66682V14.7677L16.0002 5.2344L25.3335 14.8211V25.9944Z" fill="#1294F2"/>
</svg>
