<svg width="32" height="32" viewBox="0 0 32 32" fill="none" xmlns="http://www.w3.org/2000/svg">
<path d="M17.2537 29.3332H14.7337C14.1396 29.3332 13.5698 29.0972 13.1497 28.6771C12.7297 28.257 12.4937 27.6873 12.4937 27.0932V25.6398C12.4864 25.5542 12.455 25.4724 12.4031 25.4039C12.3512 25.3355 12.2808 25.2832 12.2003 25.2532C12.1187 25.2009 12.0239 25.1731 11.927 25.1731C11.8301 25.1731 11.7352 25.2009 11.6537 25.2532L10.667 26.3198C10.46 26.5283 10.2139 26.6937 9.9427 26.8065C9.67154 26.9194 9.38072 26.9775 9.08699 26.9775C8.79327 26.9775 8.50245 26.9194 8.23128 26.8065C7.96011 26.6937 7.71396 26.5283 7.50699 26.3198L5.68033 24.5332C5.46888 24.3266 5.30096 24.0798 5.18646 23.8073C5.07196 23.5348 5.0132 23.2421 5.01366 22.9465C5.01452 22.3419 5.25412 21.762 5.68033 21.3332L6.66699 20.3465C6.71463 20.2731 6.73997 20.1874 6.73997 20.0998C6.73997 20.0123 6.71463 19.9266 6.66699 19.8532C6.58699 19.6532 6.45366 19.5065 6.26699 19.5065H4.90699C4.31168 19.503 3.74196 19.264 3.32226 18.8418C2.90255 18.4196 2.66698 17.8485 2.66699 17.2532V14.7332C2.66699 14.1391 2.90299 13.5693 3.32307 13.1493C3.74315 12.7292 4.31291 12.4932 4.90699 12.4932H6.36033C6.44595 12.4859 6.52776 12.4545 6.59622 12.4026C6.66468 12.3507 6.71697 12.2804 6.74699 12.1998C6.79926 12.1183 6.82704 12.0234 6.82704 11.9265C6.82704 11.8296 6.79926 11.7348 6.74699 11.6532L5.68033 10.6665C5.47191 10.4595 5.30649 10.2134 5.19361 9.94222C5.08073 9.67105 5.02262 9.38023 5.02262 9.0865C5.02262 8.79278 5.08073 8.50196 5.19361 8.23079C5.30649 7.95962 5.47191 7.71347 5.68033 7.5065L7.46699 5.67984C7.67152 5.4694 7.91609 5.30201 8.18629 5.18751C8.45649 5.07302 8.74687 5.01374 9.04033 5.01317C9.34199 5.01185 9.64094 5.07005 9.92008 5.18445C10.1992 5.29885 10.453 5.46719 10.667 5.67984L11.6537 6.6665C11.7271 6.71414 11.8128 6.73949 11.9003 6.73949C11.9879 6.73949 12.0735 6.71414 12.147 6.6665C12.347 6.5865 12.4937 6.45317 12.4937 6.2665V4.9065C12.4972 4.3112 12.7361 3.74147 13.1583 3.32177C13.5805 2.90207 14.1517 2.66649 14.747 2.6665H17.3337C17.9277 2.6665 18.4975 2.9025 18.9176 3.32258C19.3377 3.74267 19.5737 4.31242 19.5737 4.9065V6.35984C19.5809 6.44546 19.6123 6.52727 19.6642 6.59573C19.7162 6.66419 19.7865 6.71648 19.867 6.7465C19.9486 6.79877 20.0434 6.82656 20.1403 6.82656C20.2372 6.82656 20.3321 6.79877 20.4137 6.7465L21.3337 5.67984C21.5406 5.47142 21.7868 5.306 22.0579 5.19312C22.3291 5.08025 22.6199 5.02213 22.9137 5.02213C23.2074 5.02213 23.4982 5.08025 23.7694 5.19312C24.0405 5.306 24.2867 5.47142 24.4937 5.67984L26.3203 7.4665C26.5312 7.67351 26.6987 7.92042 26.8132 8.19282C26.9276 8.46523 26.9867 8.75769 26.987 9.05317C26.9934 9.35356 26.9375 9.65203 26.8228 9.92971C26.708 10.2074 26.5369 10.4583 26.3203 10.6665L25.3337 11.6532C25.286 11.7266 25.2607 11.8123 25.2607 11.8998C25.2607 11.9874 25.286 12.0731 25.3337 12.1465C25.4137 12.3465 25.547 12.4932 25.7337 12.4932H27.187C27.7659 12.5206 28.312 12.7701 28.7118 13.1897C29.1116 13.6094 29.3343 14.1669 29.3337 14.7465V17.3332C29.3337 17.9273 29.0977 18.497 28.6776 18.9171C28.2575 19.3372 27.6877 19.5732 27.0937 19.5732H25.6403C25.5547 19.5804 25.4729 19.6118 25.4044 19.6637C25.336 19.7157 25.2837 19.786 25.2537 19.8665C25.206 19.94 25.1807 20.0256 25.1807 20.1132C25.1807 20.2007 25.206 20.2864 25.2537 20.3598L26.2803 21.3865C26.4887 21.5935 26.6542 21.8396 26.767 22.1108C26.8799 22.382 26.938 22.6728 26.938 22.9665C26.938 23.2602 26.8799 23.5511 26.767 23.8222C26.6542 24.0934 26.4887 24.3395 26.2803 24.5465L24.5337 26.3198C24.3291 26.5303 24.0846 26.6977 23.8144 26.8122C23.5442 26.9267 23.2538 26.9859 22.9603 26.9865C22.3649 26.9787 21.7959 26.7396 21.3737 26.3198L20.347 25.3332C20.2735 25.2855 20.1879 25.2602 20.1003 25.2602C20.0128 25.2602 19.9271 25.2855 19.8537 25.3332C19.6537 25.4132 19.507 25.5465 19.507 25.7332V27.1865C19.4796 27.7654 19.2301 28.3116 18.8104 28.7113C18.3908 29.1111 17.8333 29.3338 17.2537 29.3332ZM15.1603 26.6665H16.8403V25.6398C16.846 25.025 17.034 24.4256 17.3806 23.9177C17.7271 23.4098 18.2166 23.0161 18.787 22.7865C19.3598 22.5361 19.9941 22.462 20.6091 22.5737C21.2242 22.6853 21.7921 22.9775 22.2403 23.4132L22.9603 24.1332L24.1337 22.9598L23.4137 22.2265C22.9808 21.785 22.6888 21.2248 22.5749 20.6171C22.4609 20.0094 22.5301 19.3815 22.7737 18.8132C23.0053 18.2452 23.3999 17.7586 23.9076 17.4145C24.4154 17.0705 25.0137 16.8844 25.627 16.8798H26.667V15.1598H25.6403C25.0255 15.1542 24.4261 14.9661 23.9182 14.6196C23.4102 14.2731 23.0166 13.7836 22.787 13.2132C22.5366 12.6404 22.4625 12.0061 22.5741 11.391C22.6858 10.776 22.978 10.2081 23.4137 9.75984L24.1337 9.03984L22.9603 7.8665L22.227 8.5865C21.7786 8.99606 21.2226 9.26897 20.6243 9.37311C20.026 9.47725 19.4105 9.40828 18.8501 9.17432C18.2897 8.94036 17.8078 8.55115 17.4612 8.05253C17.1146 7.5539 16.9177 6.96662 16.8937 6.35984V5.33317H15.1603V6.35984C15.1546 6.9747 14.9666 7.57405 14.6201 8.08199C14.2736 8.58992 13.7841 8.9836 13.2137 9.21317C12.6409 9.46353 12.0065 9.53763 11.3915 9.42602C10.7765 9.31441 10.2086 9.02215 9.76033 8.5865L9.04033 7.8665L7.86699 9.03984L8.58699 9.77317C8.99654 10.2215 9.26946 10.7776 9.3736 11.3759C9.47774 11.9741 9.40876 12.5897 9.1748 13.1501C8.94084 13.7104 8.55164 14.1923 8.05301 14.5389C7.55439 14.8855 6.96711 15.0825 6.36033 15.1065H5.33366V16.7865H6.36033C6.97519 16.7922 7.57454 16.9802 8.08248 17.3267C8.59041 17.6733 8.98409 18.1627 9.21366 18.7332C9.46402 19.3059 9.53812 19.9403 9.42651 20.5553C9.3149 21.1704 9.02264 21.7382 8.58699 22.1865L7.86699 22.9065L9.04033 24.0798L9.77366 23.3598C10.222 22.9503 10.7781 22.6774 11.3763 22.5732C11.9746 22.4691 12.5902 22.5381 13.1506 22.772C13.7109 23.006 14.1928 23.3952 14.5394 23.8938C14.886 24.3924 15.0829 24.9797 15.107 25.5865L15.1603 26.6665Z" fill="#96A5B8"/>
<path d="M16.0007 20.6663C15.0777 20.6663 14.1754 20.3926 13.408 19.8799C12.6406 19.3671 12.0424 18.6383 11.6892 17.7855C11.336 16.9328 11.2436 15.9945 11.4237 15.0893C11.6037 14.184 12.0482 13.3525 12.7008 12.6998C13.3535 12.0472 14.185 11.6027 15.0902 11.4227C15.9955 11.2426 16.9338 11.335 17.7865 11.6882C18.6392 12.0414 19.3681 12.6396 19.8808 13.407C20.3936 14.1744 20.6673 15.0767 20.6673 15.9997C20.6673 17.2374 20.1757 18.4243 19.3005 19.2995C18.4253 20.1747 17.2383 20.6663 16.0007 20.6663ZM16.0007 13.9997C15.6051 13.9997 15.2184 14.117 14.8895 14.3367C14.5606 14.5565 14.3043 14.8689 14.1529 15.2343C14.0015 15.5998 13.9619 16.0019 14.0391 16.3899C14.1163 16.7778 14.3067 17.1342 14.5864 17.4139C14.8661 17.6936 15.2225 17.8841 15.6105 17.9612C15.9984 18.0384 16.4006 17.9988 16.766 17.8474C17.1315 17.6961 17.4438 17.4397 17.6636 17.1108C17.8834 16.7819 18.0007 16.3952 18.0007 15.9997C18.0007 15.4692 17.7899 14.9605 17.4149 14.5855C17.0398 14.2104 16.5311 13.9997 16.0007 13.9997Z" fill="#96A5B8"/>
</svg>
