<svg width="25" height="22" viewBox="0 0 25 22" fill="none" xmlns="http://www.w3.org/2000/svg">
<path d="M20.5071 13.1221C20.242 13.1225 19.9878 13.228 19.8003 13.4155C19.6128 13.603 19.5073 13.8572 19.5068 14.1225V16.5233C19.5064 16.6823 19.4431 16.8348 19.3305 16.9472C19.2181 17.0597 19.0657 17.1231 18.9066 17.1235H6.10185C5.94282 17.1231 5.79035 17.0597 5.67796 16.9472C5.56542 16.8348 5.50205 16.6823 5.50165 16.5233V14.1225C5.50165 13.765 5.311 13.4348 5.00151 13.256C4.69203 13.0774 4.31072 13.0774 4.00111 13.256C3.69163 13.4348 3.50098 13.765 3.50098 14.1225V16.5233C3.50178 17.2128 3.77616 17.8739 4.26369 18.3615C4.75124 18.849 5.4124 19.1234 6.10186 19.1242H18.9067C19.5961 19.1234 20.2573 18.849 20.7448 18.3615C21.2324 17.8739 21.5068 17.2128 21.5075 16.5233V14.1225C21.5071 13.8572 21.4016 13.603 21.2141 13.4155C21.0266 13.228 20.7724 13.1225 20.5072 13.1221H20.5071Z" fill="#1294F2"/>
<path d="M12.5045 1.11817C12.2394 1.11857 11.9851 1.22414 11.7977 1.41158C11.6101 1.59915 11.5045 1.8533 11.5041 2.11856V11.1866L8.3431 8.55276C8.13919 8.38328 7.87634 8.30155 7.61225 8.32553C7.34832 8.34951 7.10447 8.47733 6.93459 8.68082C6.76498 8.88474 6.68325 9.14745 6.70723 9.41154C6.73135 9.67561 6.85903 9.91932 7.06252 10.0893L11.8642 14.0909C11.9148 14.1267 11.9683 14.1577 12.0243 14.1837C12.0609 14.2082 12.0991 14.2301 12.1388 14.2492C12.3719 14.3474 12.6347 14.3474 12.8679 14.2492C12.9064 14.2301 12.944 14.2084 12.9799 14.1845C13.0359 14.1584 13.0895 14.1273 13.14 14.0917L17.9417 10.0901C18.1534 9.91397 18.2832 9.65833 18.3003 9.38354C18.3176 9.10862 18.2206 8.83878 18.0325 8.63769C17.8444 8.4366 17.5817 8.32191 17.3062 8.32071C17.0723 8.32111 16.8459 8.40323 16.666 8.55275L13.5049 11.1866V2.11856C13.5045 1.85328 13.3989 1.59911 13.2114 1.41157C13.0239 1.22414 12.7696 1.11857 12.5045 1.11816L12.5045 1.11817Z" fill="#1294F2"/>
</svg>
