<svg width="33" height="32" viewBox="0 0 33 32" fill="none" xmlns="http://www.w3.org/2000/svg">
<path d="M16.0908 15.111C17.2775 15.111 18.4375 14.7982 19.4242 14.2122C20.4109 13.6261 21.18 12.7932 21.6341 11.8187C22.0882 10.8441 22.207 9.77176 21.9755 8.73719C21.744 7.70262 21.1726 6.75232 20.3335 6.00644C19.4943 5.26055 18.4252 4.7526 17.2614 4.54682C16.0975 4.34103 14.8911 4.44665 13.7947 4.85031C12.6984 5.25398 11.7613 5.93757 11.102 6.81463C10.4427 7.69169 10.0908 8.72284 10.0908 9.77767C10.0908 11.1922 10.723 12.5487 11.8482 13.5489C12.9734 14.5491 14.4995 15.111 16.0908 15.111ZM16.0908 7.111C16.6842 7.111 17.2642 7.2674 17.7575 7.56042C18.2509 7.85344 18.6354 8.26991 18.8625 8.75718C19.0895 9.24445 19.1489 9.78063 19.0332 10.2979C18.9174 10.8152 18.6317 11.2903 18.2121 11.6633C17.7926 12.0362 17.258 12.2902 16.6761 12.3931C16.0941 12.496 15.4909 12.4432 14.9428 12.2414C14.3946 12.0395 13.9261 11.6977 13.5964 11.2592C13.2668 10.8207 13.0908 10.3051 13.0908 9.77767C13.0908 9.07043 13.4069 8.39215 13.9695 7.89205C14.5321 7.39196 15.2952 7.111 16.0908 7.111Z" fill="#1294F2"/>
<path d="M16.0908 17.7773C13.306 17.7773 10.6353 18.7607 8.6662 20.511C6.69707 22.2614 5.59082 24.6353 5.59082 27.1107C5.59082 27.4643 5.74886 27.8034 6.03016 28.0535C6.31146 28.3035 6.693 28.444 7.09082 28.444C7.48865 28.444 7.87018 28.3035 8.15148 28.0535C8.43278 27.8034 8.59082 27.4643 8.59082 27.1107C8.59082 25.3426 9.381 23.6469 10.7875 22.3966C12.194 21.1464 14.1017 20.444 16.0908 20.444C18.0799 20.444 19.9876 21.1464 21.3941 22.3966C22.8006 23.6469 23.5908 25.3426 23.5908 27.1107C23.5908 27.4643 23.7489 27.8034 24.0302 28.0535C24.3115 28.3035 24.693 28.444 25.0908 28.444C25.4886 28.444 25.8702 28.3035 26.1515 28.0535C26.4328 27.8034 26.5908 27.4643 26.5908 27.1107C26.5908 24.6353 25.4846 22.2614 23.5154 20.511C21.5463 18.7607 18.8756 17.7773 16.0908 17.7773Z" fill="#1294F2"/>
</svg>
