<svg width="24" height="24" viewBox="0 0 24 24" fill="none" xmlns="http://www.w3.org/2000/svg">
<path d="M20.999 6.00138H15.999V4.33138C15.9756 3.6912 15.6992 3.08644 15.2306 2.64967C14.762 2.2129 14.1393 1.97977 13.499 2.00138H10.499C9.85878 1.97977 9.23609 2.2129 8.76745 2.64967C8.29882 3.08644 8.02248 3.6912 7.99902 4.33138V6.00138H2.99902C2.73381 6.00138 2.47945 6.10674 2.29192 6.29427C2.10438 6.48181 1.99902 6.73616 1.99902 7.00138C1.99902 7.2666 2.10438 7.52095 2.29192 7.70849C2.47945 7.89602 2.73381 8.00138 2.99902 8.00138H3.99902V19.0014C3.99902 19.797 4.31509 20.5601 4.8777 21.1227C5.44031 21.6853 6.20337 22.0014 6.99902 22.0014H16.999C17.7947 22.0014 18.5577 21.6853 19.1203 21.1227C19.683 20.5601 19.999 19.797 19.999 19.0014V8.00138H20.999C21.2642 8.00138 21.5186 7.89602 21.7061 7.70849C21.8937 7.52095 21.999 7.2666 21.999 7.00138C21.999 6.73616 21.8937 6.48181 21.7061 6.29427C21.5186 6.10674 21.2642 6.00138 20.999 6.00138ZM9.99902 4.33138C9.99902 4.17138 10.209 4.00138 10.499 4.00138H13.499C13.789 4.00138 13.999 4.17138 13.999 4.33138V6.00138H9.99902V4.33138ZM17.999 19.0014C17.999 19.2666 17.8937 19.521 17.7061 19.7085C17.5186 19.896 17.2642 20.0014 16.999 20.0014H6.99902C6.73381 20.0014 6.47945 19.896 6.29192 19.7085C6.10438 19.521 5.99902 19.2666 5.99902 19.0014V8.00138H17.999V19.0014Z" fill="#EC4848"/>
<path d="M8.99902 17C9.26424 17 9.51859 16.8946 9.70613 16.7071C9.89367 16.5196 9.99902 16.2652 9.99902 16V12C9.99902 11.7348 9.89367 11.4804 9.70613 11.2929C9.51859 11.1054 9.26424 11 8.99902 11C8.73381 11 8.47945 11.1054 8.29192 11.2929C8.10438 11.4804 7.99902 11.7348 7.99902 12V16C7.99902 16.2652 8.10438 16.5196 8.29192 16.7071C8.47945 16.8946 8.73381 17 8.99902 17Z" fill="#EC4848"/>
<path d="M14.999 17C15.2642 17 15.5186 16.8946 15.7061 16.7071C15.8937 16.5196 15.999 16.2652 15.999 16V12C15.999 11.7348 15.8937 11.4804 15.7061 11.2929C15.5186 11.1054 15.2642 11 14.999 11C14.7338 11 14.4795 11.1054 14.2919 11.2929C14.1044 11.4804 13.999 11.7348 13.999 12V16C13.999 16.2652 14.1044 16.5196 14.2919 16.7071C14.4795 16.8946 14.7338 17 14.999 17Z" fill="#EC4848"/>
</svg>
