<svg width="32" height="32" viewBox="0 0 32 32" fill="none" xmlns="http://www.w3.org/2000/svg">
<path d="M15.9999 18.6673C17.4727 18.6673 18.6666 17.4734 18.6666 16.0007C18.6666 14.5279 17.4727 13.334 15.9999 13.334C14.5272 13.334 13.3333 14.5279 13.3333 16.0007C13.3333 17.4734 14.5272 18.6673 15.9999 18.6673Z" fill="#96A5B8"/>
<path d="M25.3334 18.6673C26.8062 18.6673 28.0001 17.4734 28.0001 16.0007C28.0001 14.5279 26.8062 13.334 25.3334 13.334C23.8607 13.334 22.6667 14.5279 22.6667 16.0007C22.6667 17.4734 23.8607 18.6673 25.3334 18.6673Z" fill="#96A5B8"/>
<path d="M6.66667 18.6673C8.13943 18.6673 9.33333 17.4734 9.33333 16.0007C9.33333 14.5279 8.13943 13.334 6.66667 13.334C5.19391 13.334 4 14.5279 4 16.0007C4 17.4734 5.19391 18.6673 6.66667 18.6673Z" fill="#96A5B8"/>
</svg>
