<svg width="21" height="12" viewBox="0 0 21 12" fill="none" xmlns="http://www.w3.org/2000/svg">
<path d="M20.3721 1.01717C20.5094 0.571174 20.3721 0.24292 19.7112 0.24292H17.5243C16.9674 0.24292 16.7112 0.52479 16.5739 0.838773C16.5739 0.838773 15.46 3.44697 13.8858 5.13819C13.3771 5.627 13.1432 5.784 12.8648 5.784C12.7274 5.784 12.5158 5.627 12.5158 5.18101V1.01717C12.5158 0.481975 12.3598 0.24292 11.8995 0.24292H8.4614C8.1124 0.24292 7.90448 0.492679 7.90448 0.724597C7.90448 1.23125 8.69159 1.34899 8.77328 2.77619V5.87319C8.77328 6.55111 8.64704 6.67599 8.36858 6.67599C7.62602 6.67599 5.8216 4.05709 4.75231 1.05999C4.53697 0.478407 4.32534 0.24292 3.76471 0.24292H1.57787C0.954116 0.24292 0.827881 0.52479 0.827881 0.838773C0.827881 1.39538 1.57044 4.16056 4.2845 7.81418C6.09263 10.3082 8.63962 11.6605 10.9564 11.6605C12.3487 11.6605 12.5195 11.3608 12.5195 10.8434C12.5195 8.45998 12.3933 8.2352 13.0913 8.2352C13.4143 8.2352 13.9712 8.39219 15.2707 9.5946C16.7558 11.0218 17.0008 11.6605 17.8325 11.6605H20.0194C20.6431 11.6605 20.9587 11.3608 20.7768 10.7685C20.3609 9.52324 17.5503 6.96143 17.4241 6.79017C17.1011 6.39055 17.1939 6.21215 17.4241 5.85535C17.4278 5.85179 20.0973 2.24099 20.3721 1.01717Z" fill="#1B2559"/>
</svg>
