<svg width="17" height="16" viewBox="0 0 17 16" fill="none" xmlns="http://www.w3.org/2000/svg">
<path d="M8.8251 3.88299C6.55367 3.88299 4.72153 5.69953 4.72153 7.95162C4.72153 10.2037 6.55367 12.0202 8.8251 12.0202C11.0965 12.0202 12.9287 10.2037 12.9287 7.95162C12.9287 5.69953 11.0965 3.88299 8.8251 3.88299ZM8.8251 10.5968C7.35724 10.5968 6.15724 9.41052 6.15724 7.95162C6.15724 6.49272 7.35367 5.30648 8.8251 5.30648C10.2965 5.30648 11.493 6.49272 11.493 7.95162C11.493 9.41052 10.293 10.5968 8.8251 10.5968ZM14.0537 3.71657C14.0537 4.24418 13.6251 4.66556 13.0965 4.66556C12.5644 4.66556 12.1394 4.24064 12.1394 3.71657C12.1394 3.1925 12.568 2.76757 13.0965 2.76757C13.6251 2.76757 14.0537 3.1925 14.0537 3.71657ZM16.7715 4.67972C16.7108 3.4085 16.418 2.28245 15.4787 1.35471C14.543 0.426962 13.4072 0.136599 12.1251 0.0728608C10.8037 -0.00150049 6.84295 -0.00150049 5.52153 0.0728608C4.24295 0.133058 3.10724 0.423421 2.16795 1.35117C1.22867 2.27891 0.939383 3.40496 0.875098 4.67618C0.800098 5.98636 0.800098 9.91334 0.875098 11.2235C0.935812 12.4947 1.22867 13.6208 2.16795 14.5485C3.10724 15.4763 4.23938 15.7666 5.52153 15.8304C6.84295 15.9047 10.8037 15.9047 12.1251 15.8304C13.4072 15.7702 14.543 15.4798 15.4787 14.5485C16.4144 13.6208 16.7072 12.4947 16.7715 11.2235C16.8465 9.91334 16.8465 5.9899 16.7715 4.67972ZM15.0644 12.6293C14.7858 13.3233 14.2465 13.858 13.543 14.1378C12.4894 14.5521 9.98938 14.4565 8.8251 14.4565C7.66081 14.4565 5.15724 14.5485 4.10724 14.1378C3.40724 13.8616 2.86795 13.3269 2.58581 12.6293C2.16795 11.5847 2.26438 9.10599 2.26438 7.95162C2.26438 6.79725 2.17153 4.315 2.58581 3.27394C2.86438 2.5799 3.40367 2.04521 4.10724 1.76547C5.16081 1.35117 7.66081 1.44677 8.8251 1.44677C9.98938 1.44677 12.493 1.35471 13.543 1.76547C14.243 2.04167 14.7822 2.57636 15.0644 3.27394C15.4822 4.31854 15.3858 6.79725 15.3858 7.95162C15.3858 9.10599 15.4822 11.5882 15.0644 12.6293Z" fill="#1B2559"/>
</svg>
