<svg width="17" height="16" viewBox="0 0 17 16" fill="none" xmlns="http://www.w3.org/2000/svg">
<path d="M14.6393 3.99962H11.306V2.88628C11.2903 2.4595 11.1061 2.05632 10.7937 1.76515C10.4813 1.47397 10.0662 1.31855 9.63932 1.33295H7.63932C7.21249 1.31855 6.79736 1.47397 6.48494 1.76515C6.17252 2.05632 5.9883 2.4595 5.97266 2.88628V3.99962H2.63932C2.46251 3.99962 2.29294 4.06985 2.16792 4.19488C2.04289 4.3199 1.97266 4.48947 1.97266 4.66628C1.97266 4.84309 2.04289 5.01266 2.16792 5.13769C2.29294 5.26271 2.46251 5.33295 2.63932 5.33295H3.30599V12.6663C3.30599 13.1967 3.5167 13.7054 3.89178 14.0805C4.26685 14.4556 4.77556 14.6663 5.30599 14.6663H11.9727C12.5031 14.6663 13.0118 14.4556 13.3869 14.0805C13.7619 13.7054 13.9727 13.1967 13.9727 12.6663V5.33295H14.6393C14.8161 5.33295 14.9857 5.26271 15.1107 5.13769C15.2358 5.01266 15.306 4.84309 15.306 4.66628C15.306 4.48947 15.2358 4.3199 15.1107 4.19488C14.9857 4.06985 14.8161 3.99962 14.6393 3.99962ZM7.30599 2.88628C7.30599 2.77962 7.44599 2.66628 7.63932 2.66628H9.63932C9.83266 2.66628 9.97266 2.77962 9.97266 2.88628V3.99962H7.30599V2.88628ZM12.6393 12.6663C12.6393 12.8431 12.5691 13.0127 12.4441 13.1377C12.319 13.2627 12.1495 13.3329 11.9727 13.3329H5.30599C5.12918 13.3329 4.95961 13.2627 4.83459 13.1377C4.70956 13.0127 4.63932 12.8431 4.63932 12.6663V5.33295H12.6393V12.6663Z" fill="#EC4848"/>
<path d="M6.63932 11.333C6.81613 11.333 6.9857 11.2628 7.11073 11.1377C7.23575 11.0127 7.30599 10.8432 7.30599 10.6663V7.99967C7.30599 7.82286 7.23575 7.65329 7.11073 7.52827C6.9857 7.40325 6.81613 7.33301 6.63932 7.33301C6.46251 7.33301 6.29294 7.40325 6.16792 7.52827C6.04289 7.65329 5.97266 7.82286 5.97266 7.99967V10.6663C5.97266 10.8432 6.04289 11.0127 6.16792 11.1377C6.29294 11.2628 6.46251 11.333 6.63932 11.333Z" fill="#EC4848"/>
<path d="M10.6393 11.333C10.8161 11.333 10.9857 11.2628 11.1107 11.1377C11.2358 11.0127 11.306 10.8432 11.306 10.6663V7.99967C11.306 7.82286 11.2358 7.65329 11.1107 7.52827C10.9857 7.40325 10.8161 7.33301 10.6393 7.33301C10.4625 7.33301 10.2929 7.40325 10.1679 7.52827C10.0429 7.65329 9.97266 7.82286 9.97266 7.99967V10.6663C9.97266 10.8432 10.0429 11.0127 10.1679 11.1377C10.2929 11.2628 10.4625 11.333 10.6393 11.333Z" fill="#EC4848"/>
</svg>
