<svg width="32" height="32" viewBox="0 0 32 32" fill="none" xmlns="http://www.w3.org/2000/svg">
<path d="M29.1603 15.3335C28.3069 13.8535 23.6136 6.42682 15.6403 6.66682C8.26692 6.85349 4.00025 13.3335 2.84025 15.3335C2.72323 15.5362 2.66162 15.7661 2.66162 16.0002C2.66162 16.2342 2.72323 16.4641 2.84025 16.6668C3.68025 18.1202 8.17359 25.3335 16.0269 25.3335H16.3603C23.7336 25.1468 28.0136 18.6668 29.1603 16.6668C29.2773 16.4641 29.3389 16.2342 29.3389 16.0002C29.3389 15.7661 29.2773 15.5362 29.1603 15.3335ZM16.2936 22.6668C10.5469 22.8002 6.80025 17.8802 5.62692 16.0002C6.96025 13.8535 10.4403 9.46682 15.7736 9.33349C21.4936 9.18682 25.2536 14.1202 26.4403 16.0002C25.0669 18.1468 21.6269 22.5335 16.2936 22.6668Z" fill="#FFC44C"/>
<path d="M16.0002 11.333C15.0772 11.333 14.1749 11.6067 13.4075 12.1195C12.6401 12.6323 12.0419 13.3611 11.6887 14.2138C11.3355 15.0665 11.2431 16.0049 11.4232 16.9101C11.6032 17.8153 12.0477 18.6469 12.7003 19.2995C13.353 19.9522 14.1845 20.3966 15.0897 20.5767C15.995 20.7567 16.9333 20.6643 17.786 20.3111C18.6387 19.9579 19.3676 19.3598 19.8804 18.5923C20.3931 17.8249 20.6668 16.9227 20.6668 15.9997C20.6668 14.762 20.1752 13.575 19.3 12.6998C18.4248 11.8247 17.2378 11.333 16.0002 11.333ZM16.0002 17.9997C15.6046 17.9997 15.2179 17.8824 14.889 17.6626C14.5601 17.4429 14.3038 17.1305 14.1524 16.765C14.001 16.3996 13.9614 15.9975 14.0386 15.6095C14.1158 15.2215 14.3062 14.8652 14.586 14.5855C14.8657 14.3058 15.222 14.1153 15.61 14.0381C15.9979 13.9609 16.4001 14.0005 16.7655 14.1519C17.131 14.3033 17.4433 14.5596 17.6631 14.8885C17.8829 15.2174 18.0002 15.6041 18.0002 15.9997C18.0002 16.5301 17.7895 17.0388 17.4144 17.4139C17.0393 17.789 16.5306 17.9997 16.0002 17.9997Z" fill="#FFC44C"/>
</svg>
