<svg width="80" height="80" viewBox="0 0 80 80" fill="none" xmlns="http://www.w3.org/2000/svg">
<path fill-rule="evenodd" clip-rule="evenodd" d="M2.95201 0.138086C1.87584 0.465 0.91055 1.28025 0.34701 2.33827C0.0652397 2.86712 0.0539627 4.13864 0.0149628 39.7171C-0.0221575 73.4464 -0.00398887 76.6132 0.230323 77.3179C0.549997 78.2789 1.29256 79.1131 2.27476 79.6141L3.03126 80H29.3444C53.2988 80 55.7077 79.9772 56.2172 79.7458C57.0926 79.3482 57.9446 78.5104 58.3435 77.6548C58.6897 76.9125 58.7088 76.6989 58.7102 73.5565C58.7118 70.3376 58.7016 70.2299 58.3594 69.8502C57.9694 69.4174 57.5958 69.3218 56.9526 69.4906C56.1638 69.6973 56.0491 70.2052 56.0491 73.4922C56.0491 76.4072 56.0421 76.4714 55.6712 76.902L55.2931 77.3409L29.6707 77.3819C1.71592 77.4264 3.14341 77.4704 2.79539 76.5561C2.69389 76.2896 2.6397 63.5169 2.6397 39.8565V3.56553L3.11835 3.08751C3.55721 2.64938 3.66043 2.61716 4.36055 2.69991C5.734 2.86243 6.87377 3.65484 7.5493 4.91714C7.84892 5.47711 7.89372 5.86691 7.9642 8.52884C8.03985 11.3857 8.0599 11.5371 8.4322 12.0791C8.64599 12.3905 9.07859 12.7897 9.39325 12.9664C9.96321 13.2863 10.0564 13.2876 33.0073 13.2876H56.0491L56.0515 17.3935C56.054 21.7917 56.0985 22.0778 56.8454 22.4965C57.3352 22.771 57.9568 22.6407 58.3941 22.172C58.6971 21.8472 58.7118 21.6348 58.7118 17.5686V13.3054L61.9116 13.2574C64.8572 13.2131 65.1458 13.1837 65.5435 12.8868C66.5851 12.1093 66.6168 11.9902 66.6699 8.6521C66.7143 5.86926 66.6889 5.51419 66.3803 4.58788C65.8414 2.97035 64.7008 1.62124 63.2174 0.846035C61.493 -0.0550912 63.1955 -0.00926054 32.0133 0.00544278C16.2455 0.0127944 3.16784 0.0725463 2.95201 0.138086ZM61.9624 3.18465C62.8584 3.68049 63.508 4.41785 63.8223 5.29614C63.9511 5.6559 64.0258 6.71454 64.0302 8.24306L64.0371 10.6284H37.345H10.653L10.6012 7.85202L10.5493 5.07559L10.0082 3.98066C9.71058 3.37845 9.44008 2.83208 9.40719 2.76654C9.3743 2.701 21.0005 2.66581 35.2434 2.68833L61.1395 2.72931L61.9624 3.18465ZM9.31619 17.5814C8.41418 17.9064 7.62667 18.6161 7.14269 19.5399L6.71197 20.362L6.71542 26.6401C6.71871 32.6174 6.73406 32.9518 7.03791 33.6219C7.46628 34.5672 8.04188 35.1511 8.98305 35.5955C9.743 35.9541 9.88584 35.9653 13.8063 35.9667L17.8467 35.9682L18.231 35.5842C18.66 35.1559 18.7421 34.3488 18.4021 33.9018C18.0124 33.3897 17.379 33.3091 13.7428 33.3091H10.1435L9.75913 32.9251L9.37461 32.5413V26.661V20.7808L9.78905 20.3971L10.2035 20.0135H15.9878H21.7722L22.23 20.4708C22.6812 20.9214 22.6878 20.9528 22.6878 22.6727C22.6878 24.3925 22.6944 24.4239 23.1456 24.8746C23.745 25.473 24.2981 25.4683 24.908 24.8592L25.381 24.3868L25.3219 22.3174C25.2566 20.0256 25.0701 19.4465 24.0877 18.4874C22.9936 17.4192 23.1181 17.4364 16.1878 17.3978C11.1497 17.3698 9.80408 17.4057 9.31619 17.5814ZM38.3532 20.2518C29.9379 21.8483 23.5215 27.4323 20.9966 35.3566C20.397 37.2383 20.2156 38.1595 20.0416 40.2062C19.4941 46.6488 21.82 52.9601 26.4368 57.5601C27.3468 58.4667 28.5591 59.5378 29.1306 59.9404C31.7001 61.7504 35.1797 63.1972 38.2721 63.7417C40.3258 64.1032 43.8455 64.1044 45.8685 63.7444C48.4424 63.2861 51.6252 62.0684 53.7499 60.7289L54.3687 60.3388L54.8696 60.8625C57.8131 63.9394 57.9285 64.084 57.9352 64.6987C57.9388 65.0276 58.0621 65.5191 58.2093 65.7908C58.5277 66.3791 68.2113 77.3542 69.277 78.3346C69.684 78.7092 70.4864 79.2323 71.0602 79.4971C71.9919 79.9271 72.2621 79.9787 73.5912 79.9803C74.7642 79.9817 75.2615 79.909 75.9406 79.6368C77.7075 78.9287 79.0493 77.583 79.7116 75.8549C79.9927 75.1212 80.0323 74.7415 79.9806 73.274C79.9275 71.7685 79.8658 71.4491 79.4868 70.7181C79.2484 70.2587 78.7601 69.5647 78.4012 69.176C77.487 68.1856 66.6402 58.647 65.9419 58.2195C65.5502 57.9797 65.1209 57.8682 64.5878 57.8676L63.807 57.8668L62.0581 56.1251L60.309 54.3834L60.8203 53.5833C63.2441 49.7906 64.4625 44.7136 64.0371 40.1804C63.529 34.7676 61.4156 30.2067 57.6992 26.5024C54.642 23.4552 51.5754 21.7176 47.2798 20.5984C45.6373 20.1703 45.2122 20.1241 42.501 20.0789C40.3961 20.0439 39.1821 20.0944 38.3532 20.2518ZM46.6649 23.1862C54.3101 25.1919 59.6453 30.854 61.1597 38.5688C61.5209 40.4094 61.5137 43.8639 61.145 45.5834C60.2505 49.7542 58.5907 52.8636 55.7519 55.6863C52.8898 58.5319 49.7968 60.1901 45.8268 61.0074C43.8174 61.4209 40.6501 61.4522 38.586 61.0787C29.8774 59.5029 23.3992 52.3432 22.6914 43.5123C21.9659 34.4588 27.7033 26.0818 36.4294 23.4541C38.5648 22.8111 39.6855 22.6788 42.501 22.7371C44.7248 22.7832 45.4111 22.8572 46.6649 23.1862ZM39.1859 25.7198C30.9483 27.2125 25.1733 34.441 25.5621 42.7724C25.9621 51.3468 32.6505 58.0568 41.1849 58.4455C45.0651 58.6223 48.2974 57.7335 51.4287 55.6285C54.192 53.7707 56.7389 50.3801 57.7371 47.2303C58.3877 45.1778 58.4768 44.5329 58.4729 41.9121C58.4695 39.5932 58.4261 39.1759 58.0446 37.801C55.9912 30.3997 49.5233 25.4399 42.0065 25.5023C41.0724 25.5101 39.8031 25.608 39.1859 25.7198ZM44.6374 28.3952C50.2953 29.4665 54.7199 33.95 55.7279 39.6337C55.9614 40.9501 55.927 43.5226 55.6591 44.7854C54.5811 49.8668 50.9767 53.7622 45.9165 55.314C44.662 55.6988 44.3103 55.7372 42.0311 55.7372C39.743 55.7372 39.4026 55.6998 38.1155 55.3069C32.4276 53.5701 28.5946 48.7404 28.2206 42.8387C27.78 35.8866 32.65 29.6577 39.5251 28.3794C41.0503 28.0958 43.0893 28.1021 44.6374 28.3952ZM35.3307 32.2294C35.006 32.418 30.6757 40.9799 30.6757 41.433C30.6757 41.8807 31.3098 42.5247 31.8529 42.6284C32.7227 42.7946 33.0549 42.3312 35.3186 37.7946C37.5699 33.2827 37.6053 33.1624 36.9019 32.4097C36.5484 32.0315 35.8156 31.9475 35.3307 32.2294ZM40.5624 32.3315C40.1829 32.6476 33.3399 47.6053 33.339 48.121C33.3387 48.3098 33.5055 48.6583 33.7096 48.8953C34.1718 49.4318 35.06 49.4911 35.5346 49.017C35.705 48.8468 37.224 45.6829 38.91 41.9859C42.7671 33.5293 42.7789 33.5012 42.6672 33.0565C42.4419 32.1607 41.2574 31.7527 40.5624 32.3315ZM7.09649 40.4191C6.4501 41.0645 6.61831 42.0721 7.44561 42.5123C7.92614 42.7679 17.4014 42.7679 17.8819 42.5123C18.7092 42.0721 18.8774 41.0645 18.231 40.4191L17.8467 40.0351H12.6638H7.48085L7.09649 40.4191ZM7.09649 45.7373C6.46263 46.3702 6.58902 47.3907 7.34975 47.7836C8.00257 48.1207 17.3249 48.1207 17.9778 47.7836C18.7568 47.3813 18.8688 46.3549 18.2011 45.7369L17.7867 45.3533H12.6338H7.48085L7.09649 45.7373ZM7.41679 50.8522C6.60688 51.2946 6.4526 52.3038 7.09649 52.9467L7.48085 53.3307H12.6638H17.8467L18.231 52.9467C18.4663 52.7119 18.6155 52.3829 18.6155 52.0992C18.6155 50.7074 18.461 50.6706 12.6324 50.6762C9.38761 50.6795 7.62416 50.739 7.41679 50.8522ZM7.41679 56.1787C6.61361 56.6386 6.46137 57.6308 7.09649 58.2649L7.48085 58.6489H14.6632C21.6618 58.6489 21.8544 58.6408 22.1865 58.3317C22.9002 57.6677 22.7606 56.6248 21.9 56.1898C21.3695 55.9219 7.88354 55.9114 7.41679 56.1787ZM60.5822 60.7583L59.475 61.8555L58.0062 60.2913L56.5373 58.7271L57.5819 57.6706L58.6264 56.614L60.1579 58.1377L61.6892 59.6614L60.5822 60.7583ZM69.8571 65.0594C76.1533 70.5972 76.678 71.0912 77.0868 71.8662C77.5276 72.7014 77.5418 74.2748 77.1166 75.1443C76.1577 77.1053 73.7671 77.9273 71.872 76.9477C71.1349 76.5665 70.6309 76.0281 65.2207 69.8419L60.5775 64.5327L62.5797 62.5287C63.6809 61.4266 64.6291 60.5426 64.6867 60.5644C64.7445 60.5863 67.0712 62.6089 69.8571 65.0594ZM7.50936 61.4752C6.64321 61.8286 6.42989 62.9175 7.09649 63.5831L7.48085 63.9671H12.6638H17.8467L18.231 63.5831C18.7585 63.0564 18.7501 62.2709 18.2116 61.7654L17.8077 61.3862L12.8472 61.3538C9.87362 61.3343 7.73552 61.3831 7.50936 61.4752ZM22.106 61.5389C21.3144 61.8825 21.1546 62.931 21.7894 63.6152C22.1077 63.9582 22.1973 63.9671 25.3505 63.9671C28.5036 63.9671 28.5932 63.9582 28.9115 63.6152C29.5613 62.9147 29.3865 61.8769 28.5608 61.5323C27.8106 61.2193 22.8303 61.2243 22.106 61.5389ZM7.73004 66.7382C6.74377 66.9764 6.35847 68.2735 7.07441 68.9453L7.43699 69.2853H29.3663H51.2957L51.6364 68.9234C52.0223 68.5129 52.087 67.6445 51.7634 67.2189C51.6514 67.0717 51.3671 66.8782 51.1316 66.7887C50.7015 66.6254 8.40071 66.5762 7.73004 66.7382Z" fill="#96A5B8"/>
</svg>
