<svg width="19" height="18" viewBox="0 0 19 18" fill="none" xmlns="http://www.w3.org/2000/svg">
<path d="M9.93053 4.83816C10.2474 4.52129 10.2474 4.00749 9.93053 3.69006L6.77393 0.534392C6.42897 0.189076 5.97044 -0.000976562 5.48251 -0.000976562C4.99478 -0.000976562 4.53608 0.188895 4.1911 0.533835L1.03506 3.68988C0.689742 4.03483 0.499689 4.49337 0.500245 4.98166C0.500245 5.4694 0.690117 5.92847 1.03506 6.27252L4.19166 9.42945C4.35 9.58815 4.55763 9.66678 4.76543 9.66678C4.97323 9.66678 5.18068 9.58797 5.3392 9.42945C5.65607 9.11258 5.65607 8.59877 5.3392 8.28135L2.1826 5.12405C2.1335 5.07495 2.12336 5.01933 2.12336 4.98074C2.12336 4.94216 2.1335 4.88654 2.1826 4.83707L5.33864 1.68103C5.3881 1.63193 5.44408 1.62179 5.48231 1.62179C5.52054 1.62179 5.57652 1.63193 5.62599 1.6814L8.78291 4.83744C9.0996 5.15467 9.6134 5.15522 9.93045 4.83816L9.93053 4.83816Z" fill="#1B2559"/>
<path d="M17.965 11.7256L14.809 8.56871C14.4921 8.25184 13.9783 8.25184 13.6612 8.56871C13.3444 8.88558 13.3444 9.39938 13.6612 9.71681L16.8178 12.8737C16.8666 12.9228 16.8771 12.9788 16.8771 13.017C16.8774 13.0553 16.8673 13.1107 16.8178 13.1603L13.6612 16.3169C13.5821 16.3961 13.4534 16.3961 13.3743 16.3169L10.2177 13.1603C9.90079 12.8435 9.38643 12.8435 9.06993 13.1603C8.75306 13.4772 8.75306 13.991 9.06993 14.3081L12.2265 17.4647C12.5824 17.8205 13.05 17.9988 13.5179 17.9988C13.9859 17.9988 14.4533 17.8207 14.8094 17.4647L17.966 14.3081C18.3113 13.9631 18.5008 13.5046 18.5004 13.0163C18.5002 12.5282 18.31 12.0697 17.965 11.7256L17.965 11.7256Z" fill="#1B2559"/>
<path d="M4.90821 12.4418L3.76011 13.5895C3.44324 13.906 3.44324 14.4202 3.76011 14.7372C3.91882 14.8959 4.12663 14.9751 4.33444 14.9751C4.54226 14.9751 4.74969 14.8959 4.90821 14.7372L6.05631 13.5895C6.37318 13.273 6.37318 12.7588 6.05631 12.4418C5.73889 12.1249 5.22508 12.1249 4.90821 12.4418Z" fill="#1B2559"/>
<path d="M4.57244 11.2951C4.57244 10.847 4.20882 10.4834 3.76078 10.4834H2.61268C2.16464 10.4834 1.80103 10.847 1.80103 11.2951C1.80103 11.7431 2.16464 12.1067 2.61268 12.1067H3.76078C4.20882 12.1067 4.57244 11.7435 4.57244 11.2951Z" fill="#1B2559"/>
<path d="M7.20375 13.9268C6.7557 13.9268 6.39209 14.2904 6.39209 14.7384V15.8861C6.39209 16.3342 6.7557 16.6978 7.20375 16.6978C7.65179 16.6978 8.0154 16.3342 8.0154 15.8861V14.7384C8.0154 14.29 7.65233 13.9268 7.20375 13.9268Z" fill="#1B2559"/>
<path d="M13.5172 5.79308C13.725 5.79308 13.9324 5.71391 14.0909 5.5552L15.2387 4.4071C15.5555 4.09023 15.5555 3.57643 15.2387 3.259C14.9218 2.94249 14.408 2.94213 14.0909 3.259L12.9432 4.4071C12.6263 4.72397 12.6263 5.23777 12.9432 5.5552C13.1019 5.71355 13.3097 5.79308 13.5172 5.79308Z" fill="#1B2559"/>
<path d="M14.4275 6.70423C14.4275 7.15228 14.7911 7.51589 15.2391 7.51589H16.3869C16.8349 7.51589 17.1985 7.15228 17.1985 6.70423C17.1985 6.25619 16.8349 5.89258 16.3869 5.89258H15.2391C14.7907 5.89258 14.4275 6.25619 14.4275 6.70423Z" fill="#1B2559"/>
<path d="M11.796 4.07122C12.2441 4.07122 12.6077 3.7076 12.6077 3.25956V2.11146C12.6077 1.66342 12.2441 1.2998 11.796 1.2998C11.348 1.2998 10.9844 1.66342 10.9844 2.11146V3.25956C10.9844 3.7076 11.348 4.07122 11.796 4.07122Z" fill="#1B2559"/>
</svg>
