<svg width="17" height="14" viewBox="0 0 17 14" fill="none" xmlns="http://www.w3.org/2000/svg">
<path d="M11.4998 11.9994H5.4997C5.14244 11.9994 4.8123 12.1899 4.63367 12.4993C4.45503 12.8087 4.45503 13.1901 4.63367 13.4995C4.8123 13.8089 5.14243 13.9994 5.4997 13.9994H11.4998C11.8571 13.9994 12.1872 13.8088 12.3658 13.4995C12.5445 13.1901 12.5445 12.8087 12.3658 12.4993C12.1872 12.1899 11.8571 11.9994 11.4998 11.9994ZM1.49976 1.99895H15.4998C15.857 1.99895 16.1871 1.80843 16.3658 1.49905C16.5444 1.18967 16.5444 0.808311 16.3658 0.498919C16.1871 0.189536 15.857 -0.000976562 15.4998 -0.000976562H1.49976C1.1425 -0.000976562 0.812362 0.18954 0.63373 0.498919C0.455098 0.808302 0.455098 1.18966 0.63373 1.49905C0.812362 1.80844 1.1425 1.99895 1.49976 1.99895ZM15.4998 3.99904H1.49976C1.1425 3.99904 0.812362 4.18973 0.63373 4.49911C0.455098 4.80849 0.455098 5.18968 0.63373 5.49907C0.812362 5.80846 1.1425 5.99914 1.49976 5.99914H15.4998C15.857 5.99914 16.1871 5.80846 16.3658 5.49907C16.5444 5.18969 16.5444 4.8085 16.3658 4.49911C16.1871 4.18973 15.857 3.99904 15.4998 3.99904ZM15.4998 7.99907H1.49976C1.1425 7.99907 0.812362 8.18975 0.63373 8.49913C0.455098 8.80852 0.455098 9.1897 0.63373 9.49909C0.812362 9.80848 1.1425 9.99916 1.49976 9.99916H15.4998C15.857 9.99916 16.1871 9.80848 16.3658 9.49909C16.5444 9.18971 16.5444 8.80852 16.3658 8.49913C16.1871 8.18975 15.857 7.99907 15.4998 7.99907Z" fill="#1B2559"/>
</svg>
