<svg width="19" height="16" viewBox="0 0 19 16" fill="none" xmlns="http://www.w3.org/2000/svg">
<path d="M17.4999 6.99905H7.49977C7.14252 6.99905 6.8124 7.18956 6.63377 7.49893C6.45514 7.8083 6.45514 8.18965 6.63377 8.49904C6.8124 8.80842 7.14252 8.99892 7.49977 8.99892H17.4999C17.8572 8.99892 18.1873 8.8084 18.3659 8.49904C18.5446 8.18967 18.5446 7.80832 18.3659 7.49893C18.1873 7.18955 17.8572 6.99905 17.4999 6.99905ZM3.49996 5.99895H1.49993C1.23476 5.99895 0.980294 6.10425 0.792797 6.29175C0.605299 6.47941 0.5 6.73369 0.5 6.99905V8.99909V8.99892C0.5 9.26426 0.605299 9.51856 0.792797 9.70623C0.980294 9.89372 1.23473 9.99902 1.49993 9.99902H3.49996C3.76514 9.99902 4.0196 9.89372 4.2071 9.70623C4.39476 9.51856 4.50006 9.26429 4.4999 8.99892V6.99906C4.50006 6.73372 4.39476 6.47942 4.2071 6.29175C4.0196 6.10425 3.76516 5.99896 3.49996 5.99896V5.99895ZM7.49986 2.99899H17.5C17.8573 2.99899 18.1874 2.80848 18.366 2.49911C18.5447 2.18974 18.5447 1.80839 18.366 1.49901C18.1874 1.18962 17.8573 0.999126 17.5 0.999126H7.49986C7.14261 0.999126 6.81248 1.18964 6.63386 1.49901C6.45523 1.80837 6.45523 2.18973 6.63386 2.49911C6.81248 2.80849 7.14261 2.99899 7.49986 2.99899ZM3.49996 -0.000976562H1.49993C1.23476 -0.000976562 0.980294 0.104322 0.792797 0.29182C0.605299 0.479485 0.5 0.733757 0.5 0.999126V2.99899C0.5 3.26433 0.605299 3.51862 0.792797 3.70629C0.980294 3.89379 1.23473 3.99909 1.49993 3.99909H3.49996C3.76514 3.99909 4.0196 3.89379 4.2071 3.70629C4.39476 3.51863 4.50006 3.26436 4.4999 2.99899V0.999126C4.50006 0.733783 4.39476 0.479489 4.2071 0.29182C4.0196 0.104322 3.76516 -0.000976562 3.49996 -0.000976562ZM17.4999 12.9992H7.49977C7.14252 12.9992 6.8124 13.1897 6.63377 13.499C6.45514 13.8084 6.45514 14.1898 6.63377 14.4991C6.8124 14.8085 7.14252 14.999 7.49977 14.999H17.4999C17.8572 14.999 18.1873 14.8085 18.3659 14.4991C18.5446 14.1898 18.5446 13.8084 18.3659 13.499C18.1873 13.1897 17.8572 12.9992 17.4999 12.9992ZM3.49996 11.9991H1.49993C1.23476 11.9991 0.980294 12.1043 0.792797 12.2918C0.605299 12.4795 0.5 12.7338 0.5 12.9992V14.9992V14.999C0.5 15.2644 0.605299 15.5187 0.792797 15.7063C0.980294 15.8938 1.23473 15.9991 1.49993 15.9991H3.49996C3.76514 15.9991 4.0196 15.8938 4.2071 15.7063C4.39476 15.5187 4.50006 15.2644 4.4999 14.999V12.9992C4.50006 12.7338 4.39476 12.4795 4.2071 12.2919C4.0196 12.1044 3.76516 11.9991 3.49996 11.9991V11.9991Z" fill="#1B2559"/>
</svg>
