<svg width="21" height="16" viewBox="0 0 21 16" fill="none" xmlns="http://www.w3.org/2000/svg">
<path d="M19.7308 0.306641H1.26923C0.844607 0.306641 0.5 0.651247 0.5 1.07587V14.922C0.5 15.3467 0.844607 15.6913 1.26923 15.6913H19.7308C20.1554 15.6913 20.5 15.3467 20.5 14.922V1.07587C20.5 0.651247 20.1554 0.306641 19.7308 0.306641ZM18.9615 1.8451V8.4495L15.6592 5.14712C15.3589 4.84682 14.8719 4.84682 14.5714 5.14712L8.96176 10.7572L7.96708 9.76255C7.69665 9.49178 7.26857 9.46138 6.96176 9.69095L2.03868 13.3834V1.84497L18.9615 1.8451ZM3.57692 14.1528L7.35077 11.3224L8.41741 12.3891C8.71737 12.6894 9.20519 12.6894 9.50514 12.3891L15.1153 6.77939L18.9614 10.6255V14.1528L3.57692 14.1528Z" fill="#1B2559"/>
<path d="M6.65413 7.99917C7.92679 7.99917 8.96182 6.96414 8.96182 5.69148C8.96182 4.41882 7.92679 3.38379 6.65413 3.38379C5.38147 3.38379 4.34644 4.41882 4.34644 5.69148C4.34644 6.96414 5.38147 7.99917 6.65413 7.99917ZM6.65413 4.92225C7.0784 4.92225 7.42336 5.2672 7.42336 5.69148C7.42336 6.11576 7.0784 6.46071 6.65413 6.46071C6.22985 6.46071 5.8849 6.11576 5.8849 5.69148C5.8849 5.2672 6.22985 4.92225 6.65413 4.92225Z" fill="#1B2559"/>
</svg>
