<svg width="17" height="14" viewBox="0 0 17 14" fill="none" xmlns="http://www.w3.org/2000/svg">
<path d="M1.49975 5.99916H7.4998C7.85706 5.99916 8.1872 5.80848 8.36583 5.4991C8.54446 5.18972 8.54446 4.80854 8.36583 4.49915C8.1872 4.18976 7.85707 3.99909 7.4998 3.99909H1.49975C1.14249 3.99909 0.812359 4.18977 0.633728 4.49915C0.455098 4.80853 0.455098 5.18971 0.633728 5.4991C0.812359 5.80848 1.14249 5.99916 1.49975 5.99916ZM7.4998 11.9992H1.49975C1.14249 11.9992 0.812359 12.1897 0.633728 12.4991C0.455098 12.8085 0.455098 13.1898 0.633728 13.4992C0.812359 13.8086 1.14249 13.9991 1.49975 13.9991H7.4998C7.85706 13.9991 8.1872 13.8086 8.36583 13.4992C8.54446 13.1899 8.54446 12.8085 8.36583 12.4991C8.1872 12.1897 7.85707 11.9992 7.4998 11.9992ZM11.4998 7.99924L1.49984 7.99907C1.14258 7.99907 0.812444 8.18975 0.633814 8.49913C0.455184 8.80851 0.455184 9.18969 0.633814 9.49908C0.812444 9.80846 1.14258 9.99914 1.49984 9.99914H11.4998C11.857 9.99914 12.1872 9.80846 12.3658 9.49908C12.5444 9.1897 12.5444 8.80852 12.3658 8.49913C12.1872 8.18974 11.857 7.99907 11.4998 7.99907V7.99924ZM15.4998 -0.000976562H1.49992C1.14267 -0.000976562 0.81253 0.189538 0.6339 0.498914C0.45527 0.808293 0.45527 1.18965 0.6339 1.49904C0.81253 1.80842 1.14266 1.99893 1.49992 1.99893H15.4998C15.857 1.99893 16.1872 1.80841 16.3658 1.49904C16.5444 1.18966 16.5444 0.808302 16.3658 0.498914C16.1872 0.189534 15.857 -0.000976562 15.4998 -0.000976562Z" fill="#1B2559"/>
</svg>
