<svg width="21" height="16" viewBox="0 0 21 16" fill="none" xmlns="http://www.w3.org/2000/svg">
<path d="M16.0558 0.980469C13.6052 0.980469 11.6113 2.97433 11.6113 5.42494C11.6113 7.87554 13.6052 9.86941 16.0558 9.86941C16.6812 9.86941 17.2762 9.73786 17.8167 9.50413C17.0629 11.1855 15.8967 12.6081 14.5389 13.3468C14.1078 13.5815 13.9483 14.121 14.183 14.5525C14.3439 14.8486 14.6497 15.0166 14.9648 15.0166C15.1078 15.0166 15.2536 14.9819 15.3888 14.9087C18.3505 13.297 20.5002 9.30866 20.5002 5.42495C20.5002 2.97435 18.5063 0.980484 16.0557 0.980484L16.0558 0.980469Z" fill="#1B2559"/>
<path d="M4.94447 0.980469C2.49387 0.980469 0.5 2.97433 0.5 5.42494C0.5 7.87554 2.49387 9.86941 4.94447 9.86941C5.56984 9.86941 6.1649 9.73826 6.70539 9.50413C5.95121 11.1855 4.78493 12.6081 3.42761 13.3468C2.99646 13.5815 2.83693 14.121 3.07166 14.5525C3.23297 14.8486 3.53793 15.0166 3.85343 15.0166C3.99708 15.0166 4.14232 14.9819 4.27744 14.9087C7.23918 13.297 9.38883 9.30866 9.38883 5.42495C9.38883 2.97435 7.39497 0.980484 4.94436 0.980484L4.94447 0.980469Z" fill="#1B2559"/>
</svg>
