<svg width="32" height="32" viewBox="0 0 32 32" fill="none" xmlns="http://www.w3.org/2000/svg">
<path d="M6.2796 4.38675C6.15528 4.26243 6.00769 4.16382 5.84526 4.09654C5.68283 4.02926 5.50874 3.99463 5.33293 3.99463C5.15712 3.99463 4.98303 4.02926 4.8206 4.09654C4.65817 4.16382 4.51058 4.26243 4.38626 4.38675C4.13519 4.63782 3.99414 4.97835 3.99414 5.33342C3.99414 5.68849 4.13519 6.02901 4.38626 6.28008L25.7196 27.6134C25.8435 27.7384 25.991 27.8376 26.1535 27.9053C26.316 27.973 26.4902 28.0078 26.6663 28.0078C26.8423 28.0078 27.0166 27.973 27.179 27.9053C27.3415 27.8376 27.489 27.7384 27.6129 27.6134C27.7379 27.4895 27.8371 27.342 27.9048 27.1795C27.9725 27.017 28.0073 26.8428 28.0073 26.6668C28.0073 26.4907 27.9725 26.3165 27.9048 26.154C27.8371 25.9915 27.7379 25.844 27.6129 25.7201L6.2796 4.38675Z" fill="#96A5B8"/>
<path d="M16.4 26.2399L16 26.4666L15.6 26.2399C12.8914 24.7154 10.6368 22.4983 9.06707 19.8157C7.49733 17.133 6.66891 14.0814 6.66667 10.9732V10.7866L6.88 10.6666L4.97333 8.74658C4.6716 8.99459 4.42803 9.30585 4.25984 9.65836C4.09165 10.0109 4.00294 10.396 4 10.7866V10.9732C4.00346 14.5556 4.95827 18.0728 6.76681 21.1651C8.57536 24.2574 11.1727 26.814 14.2933 28.5732L14.6933 28.7999C15.0987 29.034 15.5586 29.1572 16.0267 29.1572C16.4948 29.1572 16.9546 29.034 17.36 28.7999L17.76 28.5732C19.2134 27.7337 20.557 26.717 21.76 25.5466L19.8667 23.6532C18.8278 24.6617 17.6625 25.5312 16.4 26.2399Z" fill="#96A5B8"/>
<path d="M26.6664 8.45337L17.3331 3.20004C16.9277 2.96599 16.4679 2.84277 15.9998 2.84277C15.5317 2.84277 15.0718 2.96599 14.6664 3.20004L9.75977 5.98671L11.7064 8.00004L15.9998 5.53337L25.3331 10.7867V10.9734C25.3348 13.9169 24.5868 16.8123 23.1598 19.3867L25.1198 21.3334C27.0025 18.2055 27.9981 14.6241 27.9998 10.9734V10.7867C28.004 10.3146 27.8828 9.84975 27.6485 9.4398C27.4143 9.02984 27.0754 8.68944 26.6664 8.45337Z" fill="#96A5B8"/>
</svg>
