<svg width="32" height="32" viewBox="0 0 32 32" fill="none" xmlns="http://www.w3.org/2000/svg">
<path d="M17.3333 2.6665C16.9797 2.6665 16.6406 2.80698 16.3905 3.05703C16.1405 3.30708 16 3.64622 16 3.99984V14.6665C16 15.0201 16.1405 15.3593 16.3905 15.6093C16.6406 15.8594 16.9797 15.9998 17.3333 15.9998H28C28.3536 15.9998 28.6928 15.8594 28.9428 15.6093C29.1929 15.3593 29.3333 15.0201 29.3333 14.6665C29.3333 11.4839 28.0691 8.43166 25.8186 6.18122C23.5682 3.93079 20.5159 2.6665 17.3333 2.6665ZM18.6667 13.3332V5.4265C20.6616 5.71399 22.5099 6.63954 23.9351 8.06475C25.3603 9.48995 26.2859 11.3382 26.5733 13.3332H18.6667Z" fill="#96A5B8"/>
<path d="M27.7598 18.7467C27.5944 18.6875 27.4189 18.6617 27.2434 18.6706C27.068 18.6795 26.896 18.723 26.7374 18.7986C26.5788 18.8741 26.4367 18.9803 26.3193 19.111C26.2018 19.2417 26.1114 19.3943 26.0531 19.56C25.4523 21.2586 24.4309 22.7772 23.0844 23.9744C21.7379 25.1715 20.1101 26.008 18.3529 26.4059C16.5957 26.8039 14.7663 26.7502 13.0355 26.2499C11.3046 25.7497 9.72865 24.8191 8.45465 23.5451C7.18065 22.2711 6.25012 20.6952 5.74987 18.9643C5.24961 17.2335 5.19594 15.4041 5.59386 13.6469C5.99178 11.8897 6.82832 10.2619 8.02543 8.91536C9.22255 7.56886 10.7412 6.54754 12.4398 5.94667C12.774 5.82997 13.0481 5.58531 13.2019 5.2665C13.3557 4.94768 13.3765 4.58084 13.2598 4.24667C13.1431 3.91249 12.8984 3.63837 12.5796 3.48459C12.2608 3.33081 11.894 3.30997 11.5598 3.42667C9.43585 4.17704 7.53664 5.45329 6.03941 7.13629C4.54219 8.8193 3.49577 10.8542 2.99782 13.0511C2.49987 15.2479 2.56662 17.5352 3.19185 19.6993C3.81707 21.8633 4.98039 23.8338 6.57321 25.4266C8.16604 27.0194 10.1365 28.1827 12.3005 28.8079C14.4646 29.4332 16.7518 29.4999 18.9487 29.002C21.1456 28.504 23.1805 27.4576 24.8635 25.9604C26.5465 24.4632 27.8228 22.5639 28.5731 20.44C28.6884 20.1075 28.6677 19.743 28.5153 19.4258C28.3629 19.1086 28.0914 18.8645 27.7598 18.7467Z" fill="#96A5B8"/>
</svg>
