<svg width="32" height="32" viewBox="0 0 32 32" fill="none" xmlns="http://www.w3.org/2000/svg">
<path d="M27.4937 5.62687C27.3388 5.50157 27.1578 5.41257 26.964 5.36642C26.7702 5.32028 26.5685 5.31815 26.3737 5.36021L16.0004 7.69354L5.62707 5.33354C5.42924 5.28886 5.22382 5.2899 5.02644 5.33658C4.82907 5.38326 4.64495 5.47435 4.4881 5.60293C4.33124 5.7315 4.20578 5.89416 4.12127 6.07853C4.03676 6.2629 3.99542 6.46412 4.0004 6.66687V22.9335C3.99287 23.2418 4.09238 23.5431 4.282 23.7862C4.47162 24.0293 4.73963 24.1991 5.0404 24.2669L15.7071 26.6669H16.0004H16.2937L26.9604 24.2669C27.2612 24.1991 27.5292 24.0293 27.7188 23.7862C27.9084 23.5431 28.0079 23.2418 28.0004 22.9335V6.66687C27.9995 6.4666 27.9535 6.26911 27.8657 6.08906C27.778 5.90901 27.6509 5.75104 27.4937 5.62687ZM6.66707 8.33354L14.6671 10.1335V23.6669L6.66707 21.8669V8.33354ZM25.3337 21.8669L17.3337 23.6669V10.1335L25.3337 8.33354V21.8669Z" fill="#96A5B8"/>
</svg>
