<svg width="32" height="32" viewBox="0 0 32 32" fill="none" xmlns="http://www.w3.org/2000/svg">
<path d="M24 5.33317H22.6667V3.99984C22.6667 3.64622 22.5262 3.30708 22.2761 3.05703C22.0261 2.80698 21.687 2.6665 21.3333 2.6665C20.9797 2.6665 20.6406 2.80698 20.3905 3.05703C20.1405 3.30708 20 3.64622 20 3.99984V5.33317H12V3.99984C12 3.64622 11.8595 3.30708 11.6095 3.05703C11.3594 2.80698 11.0203 2.6665 10.6667 2.6665C10.313 2.6665 9.97391 2.80698 9.72386 3.05703C9.47381 3.30708 9.33333 3.64622 9.33333 3.99984V5.33317H8C6.93913 5.33317 5.92172 5.7546 5.17157 6.50474C4.42143 7.25489 4 8.2723 4 9.33317V25.3332C4 26.394 4.42143 27.4115 5.17157 28.1616C5.92172 28.9117 6.93913 29.3332 8 29.3332H24C25.0609 29.3332 26.0783 28.9117 26.8284 28.1616C27.5786 27.4115 28 26.394 28 25.3332V9.33317C28 8.2723 27.5786 7.25489 26.8284 6.50474C26.0783 5.7546 25.0609 5.33317 24 5.33317ZM8 7.99984H9.33333V9.33317C9.33333 9.68679 9.47381 10.0259 9.72386 10.276C9.97391 10.526 10.313 10.6665 10.6667 10.6665C11.0203 10.6665 11.3594 10.526 11.6095 10.276C11.8595 10.0259 12 9.68679 12 9.33317V7.99984H20V9.33317C20 9.68679 20.1405 10.0259 20.3905 10.276C20.6406 10.526 20.9797 10.6665 21.3333 10.6665C21.687 10.6665 22.0261 10.526 22.2761 10.276C22.5262 10.0259 22.6667 9.68679 22.6667 9.33317V7.99984H24C24.3536 7.99984 24.6928 8.14031 24.9428 8.39036C25.1929 8.64041 25.3333 8.97955 25.3333 9.33317V14.6665H6.66667V9.33317C6.66667 8.97955 6.80714 8.64041 7.05719 8.39036C7.30724 8.14031 7.64638 7.99984 8 7.99984ZM24 26.6665H8C7.64638 26.6665 7.30724 26.526 7.05719 26.276C6.80714 26.0259 6.66667 25.6868 6.66667 25.3332V17.3332H25.3333V25.3332C25.3333 25.6868 25.1929 26.0259 24.9428 26.276C24.6928 26.526 24.3536 26.6665 24 26.6665Z" fill="#96A5B8"/>
<path d="M10.6663 22.6667C11.4027 22.6667 11.9997 22.0697 11.9997 21.3333C11.9997 20.597 11.4027 20 10.6663 20C9.92996 20 9.33301 20.597 9.33301 21.3333C9.33301 22.0697 9.92996 22.6667 10.6663 22.6667Z" fill="#96A5B8"/>
<path d="M21.3337 20H16.0003C15.6467 20 15.3076 20.1405 15.0575 20.3905C14.8075 20.6406 14.667 20.9797 14.667 21.3333C14.667 21.687 14.8075 22.0261 15.0575 22.2761C15.3076 22.5262 15.6467 22.6667 16.0003 22.6667H21.3337C21.6873 22.6667 22.0264 22.5262 22.2765 22.2761C22.5265 22.0261 22.667 21.687 22.667 21.3333C22.667 20.9797 22.5265 20.6406 22.2765 20.3905C22.0264 20.1405 21.6873 20 21.3337 20Z" fill="#96A5B8"/>
</svg>
