<svg width="32" height="32" viewBox="0 0 32 32" fill="none" xmlns="http://www.w3.org/2000/svg">
<path d="M12.0003 14.6667C13.0552 14.6667 14.0863 14.3539 14.9634 13.7678C15.8404 13.1818 16.524 12.3489 16.9277 11.3743C17.3314 10.3998 17.437 9.32742 17.2312 8.29285C17.0254 7.25829 16.5174 6.30798 15.7716 5.5621C15.0257 4.81622 14.0754 4.30827 13.0408 4.10248C12.0062 3.89669 10.9339 4.00231 9.95935 4.40598C8.98481 4.80965 8.15185 5.49323 7.56582 6.37029C6.97979 7.24736 6.66699 8.2785 6.66699 9.33334C6.66699 10.7478 7.2289 12.1044 8.22909 13.1046C9.22928 14.1048 10.5858 14.6667 12.0003 14.6667ZM12.0003 6.66667C12.5277 6.66667 13.0433 6.82307 13.4818 7.11608C13.9204 7.4091 14.2622 7.82558 14.464 8.31285C14.6658 8.80012 14.7186 9.33629 14.6158 9.85358C14.5129 10.3709 14.2589 10.846 13.8859 11.219C13.513 11.5919 13.0378 11.8459 12.5206 11.9488C12.0033 12.0517 11.4671 11.9988 10.9798 11.797C10.4926 11.5952 10.0761 11.2534 9.78307 10.8149C9.49006 10.3763 9.33366 9.86075 9.33366 9.33334C9.33366 8.62609 9.61461 7.94781 10.1147 7.44772C10.6148 6.94762 11.2931 6.66667 12.0003 6.66667Z" fill="#96A5B8"/>
<path d="M22.667 17.3335C23.4581 17.3335 24.2315 17.0989 24.8893 16.6594C25.5471 16.2199 26.0598 15.5951 26.3625 14.8642C26.6653 14.1333 26.7445 13.3291 26.5901 12.5531C26.4358 11.7772 26.0548 11.0645 25.4954 10.5051C24.936 9.94566 24.2233 9.5647 23.4474 9.41036C22.6714 9.25602 21.8672 9.33523 21.1363 9.63798C20.4054 9.94073 19.7806 10.4534 19.3411 11.1112C18.9016 11.769 18.667 12.5424 18.667 13.3335C18.667 14.3944 19.0884 15.4118 19.8386 16.1619C20.5887 16.9121 21.6061 17.3335 22.667 17.3335ZM22.667 12.0002C22.9307 12.0002 23.1885 12.0784 23.4078 12.2249C23.627 12.3714 23.7979 12.5796 23.8988 12.8233C23.9997 13.0669 24.0262 13.335 23.9747 13.5936C23.9233 13.8523 23.7963 14.0898 23.6098 14.2763C23.4233 14.4628 23.1858 14.5898 22.9271 14.6412C22.6685 14.6927 22.4004 14.6663 22.1567 14.5653C21.9131 14.4644 21.7049 14.2935 21.5584 14.0743C21.4119 13.855 21.3337 13.5972 21.3337 13.3335C21.3337 12.9799 21.4741 12.6407 21.7242 12.3907C21.9742 12.1406 22.3134 12.0002 22.667 12.0002Z" fill="#96A5B8"/>
<path d="M22.667 18.6664C21.1894 18.6681 19.7543 19.1605 18.587 20.0664C17.281 18.7656 15.6191 17.8805 13.8108 17.523C12.0024 17.1654 10.1288 17.3513 8.42596 18.0573C6.72317 18.7632 5.26754 19.9575 4.24265 21.4897C3.21775 23.0218 2.66949 24.8231 2.66699 26.6664C2.66699 27.02 2.80747 27.3592 3.05752 27.6092C3.30756 27.8593 3.6467 27.9997 4.00033 27.9997C4.35395 27.9997 4.69309 27.8593 4.94313 27.6092C5.19318 27.3592 5.33366 27.02 5.33366 26.6664C5.33366 24.8983 6.03604 23.2026 7.28628 21.9524C8.53652 20.7021 10.2322 19.9997 12.0003 19.9997C13.7684 19.9997 15.4641 20.7021 16.7144 21.9524C17.9646 23.2026 18.667 24.8983 18.667 26.6664C18.667 27.02 18.8075 27.3592 19.0575 27.6092C19.3076 27.8593 19.6467 27.9997 20.0003 27.9997C20.3539 27.9997 20.6931 27.8593 20.9431 27.6092C21.1932 27.3592 21.3337 27.02 21.3337 26.6664C21.3368 25.1043 20.9422 23.5671 20.187 22.1997C20.7762 21.7341 21.4846 21.4438 22.2312 21.362C22.9777 21.2801 23.7322 21.4101 24.4083 21.737C25.0844 22.064 25.6548 22.5746 26.0542 23.2106C26.4537 23.8465 26.666 24.5821 26.667 25.3331C26.667 25.6867 26.8075 26.0258 27.0575 26.2759C27.3076 26.5259 27.6467 26.6664 28.0003 26.6664C28.3539 26.6664 28.6931 26.5259 28.9431 26.2759C29.1932 26.0258 29.3337 25.6867 29.3337 25.3331C29.3337 23.565 28.6313 21.8693 27.381 20.619C26.1308 19.3688 24.4351 18.6664 22.667 18.6664Z" fill="#96A5B8"/>
</svg>
