<svg width="24" height="24" viewBox="0 0 24 24" fill="none" xmlns="http://www.w3.org/2000/svg">
<path d="M17.5236 21.0041C17.3637 21.0048 17.206 20.967 17.0636 20.8941L11.9636 18.2241L6.86363 20.8941C6.69802 20.9812 6.51131 21.0201 6.32471 21.0063C6.13811 20.9926 5.95911 20.9267 5.80806 20.8163C5.65701 20.7059 5.53997 20.5553 5.47024 20.3817C5.40052 20.208 5.3809 20.0183 5.41363 19.8341L6.41363 14.2041L2.29363 10.2041C2.16509 10.0758 2.0739 9.91498 2.02986 9.7388C1.98581 9.56263 1.99057 9.37778 2.04363 9.20411C2.10159 9.02638 2.20821 8.86846 2.35138 8.74827C2.49455 8.62807 2.66855 8.55042 2.85363 8.52411L8.55363 7.69411L11.0636 2.56411C11.1455 2.39504 11.2734 2.25245 11.4325 2.15268C11.5917 2.05292 11.7758 2 11.9636 2C12.1515 2 12.3355 2.05292 12.4947 2.15268C12.6539 2.25245 12.7817 2.39504 12.8636 2.56411L15.4036 7.68411L21.1036 8.51411C21.2887 8.54042 21.4627 8.61807 21.6059 8.73827C21.7491 8.85846 21.8557 9.01638 21.9136 9.19411C21.9667 9.36778 21.9714 9.55263 21.9274 9.7288C21.8834 9.90498 21.7922 10.0658 21.6636 10.1941L17.5436 14.1941L18.5436 19.8241C18.5793 20.0116 18.5606 20.2054 18.4898 20.3826C18.4189 20.5598 18.2988 20.713 18.1436 20.8241C17.9625 20.951 17.7445 21.0143 17.5236 21.0041Z" fill="#1294F2"/>
</svg>
