<svg width="24" height="27" viewBox="0 0 24 27" fill="none" xmlns="http://www.w3.org/2000/svg">
<path d="M20 2.66667H18.6667V1.33333C18.6667 0.979711 18.5262 0.640573 18.2761 0.390524C18.0261 0.140476 17.687 0 17.3333 0C16.9797 0 16.6406 0.140476 16.3905 0.390524C16.1405 0.640573 16 0.979711 16 1.33333V2.66667H8V1.33333C8 0.979711 7.85952 0.640573 7.60948 0.390524C7.35943 0.140476 7.02029 0 6.66667 0C6.31305 0 5.97391 0.140476 5.72386 0.390524C5.47381 0.640573 5.33333 0.979711 5.33333 1.33333V2.66667H4C2.93913 2.66667 1.92172 3.08809 1.17157 3.83824C0.421427 4.58839 0 5.6058 0 6.66667V22.6667C0 23.7275 0.421427 24.7449 1.17157 25.4951C1.92172 26.2452 2.93913 26.6667 4 26.6667H20C21.0609 26.6667 22.0783 26.2452 22.8284 25.4951C23.5786 24.7449 24 23.7275 24 22.6667V6.66667C24 5.6058 23.5786 4.58839 22.8284 3.83824C22.0783 3.08809 21.0609 2.66667 20 2.66667ZM4 5.33333H5.33333V6.66667C5.33333 7.02029 5.47381 7.35943 5.72386 7.60948C5.97391 7.85952 6.31305 8 6.66667 8C7.02029 8 7.35943 7.85952 7.60948 7.60948C7.85952 7.35943 8 7.02029 8 6.66667V5.33333H16V6.66667C16 7.02029 16.1405 7.35943 16.3905 7.60948C16.6406 7.85952 16.9797 8 17.3333 8C17.687 8 18.0261 7.85952 18.2761 7.60948C18.5262 7.35943 18.6667 7.02029 18.6667 6.66667V5.33333H20C20.3536 5.33333 20.6928 5.47381 20.9428 5.72386C21.1929 5.97391 21.3333 6.31305 21.3333 6.66667V12H2.66667V6.66667C2.66667 6.31305 2.80714 5.97391 3.05719 5.72386C3.30724 5.47381 3.64638 5.33333 4 5.33333ZM20 24H4C3.64638 24 3.30724 23.8595 3.05719 23.6095C2.80714 23.3594 2.66667 23.0203 2.66667 22.6667V14.6667H21.3333V22.6667C21.3333 23.0203 21.1929 23.3594 20.9428 23.6095C20.6928 23.8595 20.3536 24 20 24Z" fill="#96A5B8"/>
<path d="M6.66665 19.9997C7.40303 19.9997 7.99998 19.4027 7.99998 18.6663C7.99998 17.93 7.40303 17.333 6.66665 17.333C5.93027 17.333 5.33331 17.93 5.33331 18.6663C5.33331 19.4027 5.93027 19.9997 6.66665 19.9997Z" fill="#96A5B8"/>
<path d="M17.3334 17.333H12C11.6464 17.333 11.3073 17.4735 11.0572 17.7235C10.8072 17.9736 10.6667 18.3127 10.6667 18.6663C10.6667 19.02 10.8072 19.3591 11.0572 19.6092C11.3073 19.8592 11.6464 19.9997 12 19.9997H17.3334C17.687 19.9997 18.0261 19.8592 18.2762 19.6092C18.5262 19.3591 18.6667 19.02 18.6667 18.6663C18.6667 18.3127 18.5262 17.9736 18.2762 17.7235C18.0261 17.4735 17.687 17.333 17.3334 17.333Z" fill="#96A5B8"/>
</svg>
