<svg width="32" height="32" viewBox="0 0 32 32" fill="none" xmlns="http://www.w3.org/2000/svg">
<path d="M27.9997 8.00016H26.6663V6.66683C26.6663 6.31321 26.5259 5.97407 26.2758 5.72402C26.0258 5.47397 25.6866 5.3335 25.333 5.3335C24.9794 5.3335 24.6402 5.47397 24.3902 5.72402C24.1401 5.97407 23.9997 6.31321 23.9997 6.66683V8.00016H22.6663C22.3127 8.00016 21.9736 8.14064 21.7235 8.39069C21.4735 8.64074 21.333 8.97987 21.333 9.3335C21.333 9.68712 21.4735 10.0263 21.7235 10.2763C21.9736 10.5264 22.3127 10.6668 22.6663 10.6668H23.9997V12.0002C23.9997 12.3538 24.1401 12.6929 24.3902 12.943C24.6402 13.193 24.9794 13.3335 25.333 13.3335C25.6866 13.3335 26.0258 13.193 26.2758 12.943C26.5259 12.6929 26.6663 12.3538 26.6663 12.0002V10.6668H27.9997C28.3533 10.6668 28.6924 10.5264 28.9425 10.2763C29.1925 10.0263 29.333 9.68712 29.333 9.3335C29.333 8.97987 29.1925 8.64074 28.9425 8.39069C28.6924 8.14064 28.3533 8.00016 27.9997 8.00016Z" fill="#5DC983"/>
<path d="M13.3333 14.6667C14.3882 14.6667 15.4193 14.3539 16.2964 13.7678C17.1734 13.1818 17.857 12.3489 18.2607 11.3743C18.6644 10.3998 18.77 9.32742 18.5642 8.29285C18.3584 7.25829 17.8505 6.30798 17.1046 5.5621C16.3587 4.81622 15.4084 4.30827 14.3738 4.10248C13.3392 3.89669 12.2669 4.00231 11.2924 4.40598C10.3178 4.80965 9.48486 5.49323 8.89883 6.37029C8.31279 7.24736 8 8.2785 8 9.33334C8 10.7478 8.5619 12.1044 9.5621 13.1046C10.5623 14.1048 11.9188 14.6667 13.3333 14.6667ZM13.3333 6.66667C13.8608 6.66667 14.3763 6.82307 14.8149 7.11608C15.2534 7.4091 15.5952 7.82558 15.797 8.31285C15.9988 8.80012 16.0517 9.33629 15.9488 9.85358C15.8459 10.3709 15.5919 10.846 15.219 11.219C14.846 11.5919 14.3709 11.8459 13.8536 11.9488C13.3363 12.0517 12.8001 11.9988 12.3128 11.797C11.8256 11.5952 11.4091 11.2534 11.1161 10.8149C10.8231 10.3763 10.6667 9.86075 10.6667 9.33334C10.6667 8.62609 10.9476 7.94781 11.4477 7.44772C11.9478 6.94762 12.6261 6.66667 13.3333 6.66667Z" fill="#5DC983"/>
<path d="M13.3333 17.3335C10.858 17.3335 8.48401 18.3168 6.73367 20.0672C4.98333 21.8175 4 24.1915 4 26.6668C4 27.0205 4.14048 27.3596 4.39052 27.6096C4.64057 27.8597 4.97971 28.0002 5.33333 28.0002C5.68696 28.0002 6.02609 27.8597 6.27614 27.6096C6.52619 27.3596 6.66667 27.0205 6.66667 26.6668C6.66667 24.8987 7.36905 23.203 8.61929 21.9528C9.86953 20.7025 11.5652 20.0002 13.3333 20.0002C15.1014 20.0002 16.7971 20.7025 18.0474 21.9528C19.2976 23.203 20 24.8987 20 26.6668C20 27.0205 20.1405 27.3596 20.3905 27.6096C20.6406 27.8597 20.9797 28.0002 21.3333 28.0002C21.687 28.0002 22.0261 27.8597 22.2761 27.6096C22.5262 27.3596 22.6667 27.0205 22.6667 26.6668C22.6667 24.1915 21.6833 21.8175 19.933 20.0672C18.1827 18.3168 15.8087 17.3335 13.3333 17.3335Z" fill="#5DC983"/>
</svg>
