<svg width="60" height="45" viewBox="0 0 60 45" fill="none" xmlns="http://www.w3.org/2000/svg">
<path d="M43.343 28.4084L40.4197 29.5375L29.8291 19.3106L29.4818 18.9752L29.1345 19.3107L23.4993 24.7526L17.8634 19.3106L17.5161 18.9752L17.1688 19.3107L6.34939 29.7593L5.45923 30.619H6.69673H39.802V33.5H0.5V0.5H46.5V27.1891L43.6551 28.2879V27.5319V6.46719V5.28933L42.8078 6.10751L31.9003 16.6399L31.5278 16.9996L31.9003 17.3592L42.8078 27.8916L43.343 28.4084ZM3.34386 27.5324V28.7103L4.19119 27.892L15.0978 17.3597L15.4703 17L15.0978 16.6403L4.19119 6.10796L3.34386 5.28971V6.46763V27.5324ZM6.6969 3.38058H5.45933L6.34958 4.24025L23.1521 20.4657L23.4994 20.8011L23.8467 20.4657L40.6492 4.24025L41.5394 3.38058H40.3019H6.6969Z" fill="#1B2559" stroke="white"/>
<path d="M51.8027 22C52.3886 22 52.8612 22.4739 52.8612 23.0564L52.8609 25.9315H58.9414C59.5273 25.9315 60 26.4053 60 26.9877C60.0022 27.5702 59.5273 28.044 58.9414 28.044L57.2382 28.0438L57.2385 41.7313C57.2429 43.5025 55.7423 45 53.9674 45H43.0348C41.2599 45 39.7593 43.5025 39.7593 41.7313L39.7591 28.0438L38.0586 28.044C37.4727 28.044 37 27.5702 37 26.9877C37 26.4053 37.4727 25.9315 38.0586 25.9315H44.1433L44.1435 23.0564C44.1435 22.4739 44.616 22 45.2018 22H51.8027ZM55.1215 28.044H41.8764L41.8766 41.7314C41.8766 42.3247 42.4384 42.8856 43.0329 42.8856H53.9655C54.56 42.8856 55.1218 42.3247 55.1218 41.7314L55.1215 28.044ZM45.8421 30.8455C46.428 30.8455 46.9005 31.3191 46.9005 31.9016V39.0278C46.9005 39.6124 46.4258 40.0839 45.8421 40.0839C45.2563 40.0839 44.7838 39.6103 44.7838 39.0278V31.9016C44.7838 31.3191 45.2563 30.8455 45.8421 30.8455ZM51.1603 30.8455C51.7462 30.8455 52.2187 31.3191 52.2187 31.9016V39.0278C52.2187 39.6124 51.7462 40.0839 51.1603 40.0839C50.5745 40.0839 50.102 39.6103 50.102 39.0278V31.9016C50.102 31.3191 50.5745 30.8455 51.1603 30.8455ZM50.7421 24.1126H46.2603V25.9316H50.742L50.7421 24.1126Z" fill="#1B2559"/>
</svg>
