<svg width="49" height="55" viewBox="0 0 49 55" fill="none" xmlns="http://www.w3.org/2000/svg">
<path d="M3.84471 27.5333L4.19119 27.892L15.0978 17.3597L15.4703 17L15.0978 16.6403L4.19119 6.10796L3.34386 5.28971V6.46763V27.3201V27.5324V27.5333H3.84386H3.84471ZM6.69603 3.88148L6.34958 4.24025L23.1521 20.4657L23.4994 20.8011L23.8467 20.4657L40.6492 4.24025L41.5394 3.38058H40.3019H6.89891H6.6969H6.69603V3.88058V3.88148ZM43.1551 6.46631H43.1542L42.8078 6.10751L31.9003 16.6399L31.5278 16.9996L31.9003 17.3592L42.8078 27.8916L43.6551 28.7098V27.5319V6.67944V6.46719V6.46631H43.1551ZM40.302 30.619H41.5396L40.6494 29.7593L29.8291 19.3106L29.4818 18.9752L29.1345 19.3107L23.4993 24.7526L17.8634 19.3106L17.5161 18.9752L17.1688 19.3107L6.34939 29.7593L5.45923 30.619H6.69673H40.302ZM46.5 33.5H0.5V0.5H46.5V33.5Z" fill="#1B2559" stroke="white"/>
<path d="M46.0184 34.0415C45.5551 34.0415 45.1176 34.1507 44.7262 34.34C44.4047 33.0398 43.232 32.0724 41.834 32.0724C41.2365 32.0724 40.6806 32.2507 40.2135 32.5549C39.6936 31.6786 38.741 31.0879 37.65 31.0879C37.2221 31.0879 36.8158 31.1806 36.4477 31.3434V25.9825C36.4477 24.3383 35.1101 23 33.4652 23C31.8203 23 30.4827 24.3383 30.4827 25.9825V35.9728C27.8962 37.5707 26.4206 39.9045 26.4206 42.4391C26.4206 43.4903 26.5727 44.5054 26.8433 45.4714C26.741 45.5596 26.6386 45.6476 26.5421 45.7447C24.4868 47.8011 24.4858 51.1459 26.5401 53.2021C26.5401 53.2021 26.5411 53.2042 26.5421 53.2052L26.5445 53.2073C27.5404 54.2021 28.8643 54.7512 30.2722 54.7512C31.6811 54.7512 33.0064 54.2017 34.0023 53.2048C34.0284 53.1787 34.0503 53.1502 34.0757 53.1234C35.2168 53.5139 36.4384 53.7288 37.7104 53.7288C43.9356 53.7288 49 48.6647 49 42.4383V37.0228C49.001 35.3789 47.6633 34.0415 46.0184 34.0415ZM27.8022 47.0033C28.4622 46.3432 29.3403 45.9802 30.2736 45.9802C30.9024 45.9802 31.5044 46.1485 32.0333 46.4579L27.2576 51.2333C26.4784 49.895 26.6576 48.1485 27.8022 47.0033ZM30.2733 52.9706C29.6445 52.9706 29.0429 52.8017 28.5147 52.4926L33.2904 47.7172C34.0689 49.0548 33.89 50.801 32.7451 51.9462C32.0847 52.6069 31.207 52.9706 30.2733 52.9706ZM47.2218 42.4388C47.2218 47.6823 42.9561 51.9491 37.7124 51.9491C36.8079 51.9491 35.9356 51.8155 35.1076 51.5765C35.9442 49.6476 35.5791 47.3189 34.0053 45.7448C33.0084 44.7482 31.6832 44.1995 30.2743 44.1995C29.6403 44.1995 29.0253 44.3162 28.4477 44.5295C28.2935 43.856 28.2025 43.1589 28.2025 42.4392C28.2025 40.8516 29.0202 39.3437 30.4844 38.1508V40.8393C30.4844 41.3307 30.8831 41.7297 31.3746 41.7297C31.866 41.7297 32.2647 41.3304 32.2647 40.8393L32.2643 25.9831C32.2643 25.3203 32.8038 24.7815 33.4666 24.7815C34.1294 24.7815 34.6689 25.321 34.6689 25.9831V40.8402C34.6689 41.3316 35.0676 41.7306 35.559 41.7306C36.0504 41.7306 36.4491 41.3312 36.4491 40.8402V34.071C36.4491 33.4082 36.9886 32.8694 37.6514 32.8694C38.3141 32.8694 38.853 33.4089 38.853 34.071C38.853 34.0747 38.854 34.0778 38.854 34.0809V40.8402C38.854 41.3316 39.2527 41.7306 39.7441 41.7306C40.2355 41.7306 40.6342 41.3313 40.6342 40.8402V35.0555C40.6342 34.3927 41.1733 33.8539 41.8354 33.8539C42.4985 33.8539 43.0377 34.3934 43.0377 35.0555V40.8402C43.0377 41.3316 43.4364 41.7306 43.9278 41.7306C44.4192 41.7306 44.8179 41.3313 44.8179 40.8402V37.025C44.8179 36.3622 45.3574 35.8234 46.0202 35.8234C46.683 35.8234 47.2225 36.3629 47.2225 37.025L47.2221 42.4398L47.2218 42.4388Z" fill="#1B2559"/>
</svg>
