<svg width="24" height="21" viewBox="0 0 24 21" fill="none" xmlns="http://www.w3.org/2000/svg">
<path fill-rule="evenodd" clip-rule="evenodd" d="M1.28271 9.37264V17.0485H4.61375H7.94478V17.6692V18.2899H7.05513H6.16547V18.9106V19.5313H11.8758H17.5862V18.9106V18.2899H16.6965H15.8069V17.6692V17.0485H19.1379H22.4689V9.37264V1.69678H11.8758H1.28271V9.37264ZM21.2275 7.71747V12.4968H11.8758H2.52409V7.71747V2.93816H11.8758H21.2275V7.71747ZM5.71216 4.67989C5.28414 4.76381 4.75125 5.14479 4.52723 5.52709C4.18196 6.11621 4.17252 6.84205 4.50273 7.41395L4.62732 7.62978L4.38852 7.89039C4.25718 8.03373 4.09034 8.27158 4.0178 8.41893C3.81471 8.83152 3.767 9.13972 3.76618 10.0451L3.76547 10.8416H6.1034H8.44134L8.44071 10.0037C8.44005 9.08667 8.39876 8.80707 8.20833 8.43047C8.08105 8.17864 7.77869 7.78206 7.65649 7.70663C7.57196 7.65445 7.57196 7.65441 7.66911 7.49973C8.04972 6.89402 8.05254 6.10041 7.67623 5.50434C7.26438 4.85191 6.49092 4.52725 5.71216 4.67989ZM10.5103 5.2554V5.87609H15.2482H19.9862V5.2554V4.63471H15.2482H10.5103V5.2554ZM6.41416 5.96919C6.63678 6.12072 6.71934 6.2634 6.71934 6.49678C6.71934 6.82119 6.4903 7.06972 6.15985 7.10385C5.80618 7.14035 5.5034 6.86038 5.5034 6.49678C5.5034 6.02054 6.03616 5.71194 6.41416 5.96919ZM10.5103 7.73816V8.35885H15.2482H19.9862V7.73816V7.11747H15.2482H10.5103V7.73816ZM6.46361 8.42315C6.87414 8.56305 7.19872 8.99551 7.19954 9.40367L7.19996 9.60023H6.09761H4.99527L5.01869 9.37355C5.09276 8.6557 5.79347 8.19482 6.46361 8.42315ZM10.5103 10.2209V10.8416H15.2482H19.9862V10.2209V9.60023H15.2482H10.5103V10.2209ZM21.2275 14.7726V15.8071H11.8758H2.52409V14.7726V13.7382H11.8758H21.2275V14.7726ZM14.5655 17.6692V18.2899H11.8758H9.18616V17.6692V17.0485H11.8758H14.5655V17.6692Z" fill="#1B2559"/>
</svg>
