<svg width="32" height="32" viewBox="0 0 32 32" fill="none" xmlns="http://www.w3.org/2000/svg">
<path d="M13.3332 25.3336C13.0217 25.3342 12.7198 25.2257 12.4799 25.0269C12.3449 24.915 12.2333 24.7775 12.1515 24.6224C12.0697 24.4673 12.0193 24.2975 12.0032 24.1229C11.9871 23.9482 12.0056 23.7721 12.0577 23.6047C12.1097 23.4372 12.1943 23.2816 12.3066 23.1469L18.2799 16.0002L12.5199 8.84025C12.4092 8.70386 12.3264 8.54693 12.2765 8.37848C12.2266 8.21003 12.2105 8.03337 12.2291 7.85867C12.2477 7.68397 12.3006 7.51466 12.3848 7.36047C12.4691 7.20629 12.5829 7.07028 12.7199 6.96025C12.8579 6.83886 13.0194 6.74731 13.1944 6.69132C13.3694 6.63534 13.5541 6.61613 13.7369 6.63491C13.9197 6.65369 14.0967 6.71005 14.2566 6.80045C14.4166 6.89086 14.5562 7.01335 14.6666 7.16025L21.1066 15.1602C21.3027 15.3988 21.4099 15.6981 21.4099 16.0069C21.4099 16.3157 21.3027 16.615 21.1066 16.8536L14.4399 24.8536C14.3061 25.0149 14.1362 25.1425 13.944 25.2259C13.7517 25.3093 13.5424 25.3462 13.3332 25.3336Z" fill="#96A5B8"/>
</svg>
