<svg width="32" height="32" viewBox="0 0 32 32" fill="none" xmlns="http://www.w3.org/2000/svg">
<path d="M28.0003 8.00119H21.3337V5.77452C21.3024 4.92095 20.9339 4.1146 20.3091 3.53224C19.6842 2.94989 18.854 2.63904 18.0003 2.66785H14.0003C13.1467 2.63904 12.3164 2.94989 11.6916 3.53224C11.0667 4.1146 10.6983 4.92095 10.667 5.77452V8.00119H4.00033C3.6467 8.00119 3.30756 8.14166 3.05752 8.39171C2.80747 8.64176 2.66699 8.9809 2.66699 9.33452C2.66699 9.68814 2.80747 10.0273 3.05752 10.2773C3.30756 10.5274 3.6467 10.6679 4.00033 10.6679H5.33366V25.3345C5.33366 26.3954 5.75509 27.4128 6.50523 28.1629C7.25538 28.9131 8.27279 29.3345 9.33366 29.3345H22.667C23.7279 29.3345 24.7453 28.9131 25.4954 28.1629C26.2456 27.4128 26.667 26.3954 26.667 25.3345V10.6679H28.0003C28.3539 10.6679 28.6931 10.5274 28.9431 10.2773C29.1932 10.0273 29.3337 9.68814 29.3337 9.33452C29.3337 8.9809 29.1932 8.64176 28.9431 8.39171C28.6931 8.14166 28.3539 8.00119 28.0003 8.00119ZM13.3337 5.77452C13.3337 5.56119 13.6137 5.33452 14.0003 5.33452H18.0003C18.387 5.33452 18.667 5.56119 18.667 5.77452V8.00119H13.3337V5.77452ZM24.0003 25.3345C24.0003 25.6881 23.8599 26.0273 23.6098 26.2773C23.3598 26.5274 23.0206 26.6679 22.667 26.6679H9.33366C8.98004 26.6679 8.6409 26.5274 8.39085 26.2773C8.1408 26.0273 8.00033 25.6881 8.00033 25.3345V10.6679H24.0003V25.3345Z" fill="#EC4848"/>
<path d="M12.0003 22.667C12.3539 22.667 12.6931 22.5265 12.9431 22.2765C13.1932 22.0264 13.3337 21.6873 13.3337 21.3337V16.0003C13.3337 15.6467 13.1932 15.3076 12.9431 15.0575C12.6931 14.8075 12.3539 14.667 12.0003 14.667C11.6467 14.667 11.3076 14.8075 11.0575 15.0575C10.8075 15.3076 10.667 15.6467 10.667 16.0003V21.3337C10.667 21.6873 10.8075 22.0264 11.0575 22.2765C11.3076 22.5265 11.6467 22.667 12.0003 22.667Z" fill="#EC4848"/>
<path d="M20.0003 22.667C20.3539 22.667 20.6931 22.5265 20.9431 22.2765C21.1932 22.0264 21.3337 21.6873 21.3337 21.3337V16.0003C21.3337 15.6467 21.1932 15.3076 20.9431 15.0575C20.6931 14.8075 20.3539 14.667 20.0003 14.667C19.6467 14.667 19.3076 14.8075 19.0575 15.0575C18.8075 15.3076 18.667 15.6467 18.667 16.0003V21.3337C18.667 21.6873 18.8075 22.0264 19.0575 22.2765C19.3076 22.5265 19.6467 22.667 20.0003 22.667Z" fill="#EC4848"/>
</svg>
