<svg width="32" height="32" viewBox="0 0 32 32" fill="none" xmlns="http://www.w3.org/2000/svg">
<path d="M25.8661 9.78648L22.2128 6.13314C21.7359 5.68527 21.1111 5.42829 20.4572 5.41108C19.8032 5.39387 19.1658 5.61764 18.6661 6.03981L6.66609 18.0398C6.23511 18.4744 5.96676 19.0441 5.90609 19.6531L5.33275 25.2131C5.31479 25.4084 5.34013 25.6053 5.40697 25.7897C5.4738 25.974 5.58049 26.1414 5.71942 26.2798C5.84401 26.4034 5.99176 26.5012 6.15421 26.5675C6.31666 26.6339 6.49061 26.6675 6.66609 26.6665H6.78609L12.3461 26.1598C12.9551 26.0991 13.5248 25.8308 13.9594 25.3998L25.9594 13.3998C26.4252 12.9078 26.6769 12.2512 26.6594 11.5739C26.6419 10.8966 26.3566 10.2538 25.8661 9.78648ZM21.3328 14.2398L17.7594 10.6665L20.3594 7.99981L23.9994 11.6398L21.3328 14.2398Z" fill="#1294F2"/>
</svg>
