<svg width="21" height="16" viewBox="0 0 21 16" fill="none" xmlns="http://www.w3.org/2000/svg">
<path d="M8.49727 2.99499H19.4998C19.8571 2.99499 20.1873 2.80443 20.366 2.49499C20.5447 2.18555 20.5447 1.80412 20.366 1.49466C20.1873 1.18521 19.8571 0.994668 19.4998 0.994668H8.49727C8.13994 0.994668 7.80973 1.18522 7.63106 1.49466C7.4524 1.8041 7.4524 2.18554 7.63106 2.49499C7.80973 2.80445 8.13993 2.99499 8.49727 2.99499ZM19.4998 6.9958L8.49727 6.99597C8.13994 6.99597 7.80973 7.18652 7.63106 7.49596C7.4524 7.8054 7.4524 8.18684 7.63106 8.49629C7.80973 8.80575 8.13993 8.99629 8.49727 8.99629H19.4998C19.8571 8.99629 20.1873 8.80573 20.366 8.49629C20.5447 8.18685 20.5447 7.80541 20.366 7.49596C20.1873 7.18651 19.8571 6.99597 19.4998 6.99597V6.9958ZM19.4998 12.9971L8.49727 12.9973C8.13994 12.9973 7.80973 13.1878 7.63106 13.4973C7.4524 13.8067 7.4524 14.1881 7.63106 14.4976C7.80973 14.807 8.13993 14.9976 8.49727 14.9976H19.4998C19.8571 14.9976 20.1873 14.807 20.366 14.4976C20.5447 14.1882 20.5447 13.8067 20.366 13.4973C20.1873 13.1878 19.8571 12.9973 19.4998 12.9973V12.9971ZM3.78924 0.287629L2.49588 1.58082L2.20285 1.28779V1.28763C1.94967 1.03763 1.58278 0.941012 1.23934 1.03394C0.895738 1.12671 0.627505 1.39496 0.534699 1.73858C0.441765 2.08201 0.53855 2.44888 0.78855 2.70209L1.78871 3.70225C1.97625 3.88996 2.23062 3.99528 2.49601 3.99528C2.76124 3.99528 3.01559 3.88996 3.20313 3.70225L5.20362 1.70176V1.70193C5.45362 1.44875 5.55024 1.08169 5.45731 0.738288C5.36454 0.394855 5.09629 0.126584 4.75267 0.0336495C4.40923 -0.0591178 4.04237 0.0375006 3.78916 0.287667L3.78924 0.287629ZM3.78924 6.28893L2.49588 7.58213L2.20285 7.2891V7.28893C1.94967 7.03893 1.58278 6.94231 1.23934 7.03524C0.895738 7.12801 0.627505 7.39626 0.534699 7.73988C0.441765 8.08332 0.53855 8.45018 0.78855 8.70339L1.78871 9.70355C1.97625 9.89126 2.23062 9.99658 2.49601 9.99658C2.76124 9.99658 3.01559 9.89126 3.20313 9.70355L5.20362 7.70306V7.70323C5.45362 7.45005 5.55024 7.08299 5.45731 6.73959C5.36454 6.39616 5.09629 6.12789 4.75267 6.03495C4.40923 5.94219 4.04237 6.0388 3.78916 6.28897L3.78924 6.28893ZM3.78924 12.2902L2.49588 13.5834L2.20285 13.2904V13.2902C1.94967 13.0402 1.58278 12.9436 1.23934 13.0365C0.895738 13.1293 0.627505 13.3976 0.534699 13.7412C0.441765 14.0846 0.53855 14.4515 0.78855 14.7047L1.78871 15.7049C1.97625 15.8926 2.23062 15.9979 2.49601 15.9979C2.76124 15.9979 3.01559 15.8926 3.20313 15.7049L5.20362 13.7044V13.7045C5.45362 13.4514 5.55024 13.0843 5.45731 12.7409C5.36454 12.3975 5.09629 12.1292 4.75267 12.0363C4.40923 11.9435 4.04237 12.0401 3.78916 12.2903L3.78924 12.2902Z" fill="#1B2559"/>
</svg>
