<svg width="13" height="16" viewBox="0 0 13 16" fill="none" xmlns="http://www.w3.org/2000/svg">
<path d="M6.49976 12.9986C7.8253 12.997 9.09624 12.4698 10.0336 11.5325C10.9709 10.5952 11.498 9.32424 11.4997 7.9987V0.998988C11.4997 0.641743 11.309 0.311617 10.9997 0.132992C10.6903 -0.0456327 10.3091 -0.0456327 9.99974 0.132992C9.69037 0.311617 9.49969 0.641738 9.49969 0.998988V7.9987C9.49969 9.07044 8.92782 10.0608 7.99972 10.5967C7.07163 11.1326 5.92788 11.1326 4.99979 10.5967C4.07169 10.0608 3.49982 9.07044 3.49982 7.9987V0.998988C3.49982 0.641743 3.30914 0.311617 2.99977 0.132992C2.6904 -0.0456327 2.30923 -0.0456327 1.99985 0.132992C1.69048 0.311617 1.49981 0.641738 1.49981 0.998988V7.9987C1.50148 9.32424 2.02865 10.5952 2.96596 11.5325C3.90327 12.4698 5.17421 12.997 6.49976 12.9986ZM11.4998 13.9986H1.49972C1.14247 13.9986 0.812349 14.1892 0.633724 14.4986C0.4551 14.808 0.4551 15.1892 0.633724 15.4985C0.812349 15.8079 1.14247 15.9986 1.49972 15.9986H11.4998C11.857 15.9986 12.1872 15.8079 12.3658 15.4985C12.5444 15.1892 12.5444 14.808 12.3658 14.4986C12.1872 14.1892 11.857 13.9986 11.4998 13.9986Z" fill="#1B2559"/>
</svg>
