<svg width="19" height="18" viewBox="0 0 19 18" fill="none" xmlns="http://www.w3.org/2000/svg">
<path d="M14.3507 0.761192C14.5239 0.764374 14.6964 0.775924 14.8679 0.799612C15.2072 0.84593 15.5409 0.934084 15.8586 1.06137C16.2566 1.22024 16.6298 1.44062 16.9612 1.7124C17.322 2.00786 17.6331 2.36415 17.8778 2.76177C18.1104 3.14033 18.2827 3.55587 18.3858 3.98828C18.4779 4.37474 18.5149 4.77378 18.4951 5.17062C18.4714 5.65052 18.3642 6.12571 18.1805 6.56968C18.0364 6.9177 17.8451 7.24629 17.6136 7.54351C17.5072 7.67975 17.3925 7.80844 17.271 7.93135L9.13513 16.0673C9.11933 16.0816 9.10425 16.0964 9.08799 16.1097C9.02187 16.1632 8.94491 16.2024 8.863 16.2243C8.80183 16.2408 8.73796 16.2473 8.67431 16.2441C8.5039 16.2352 8.34219 16.1528 8.23472 16.0202C8.19477 15.971 8.16283 15.9152 8.13985 15.8559C8.11722 15.7967 8.1039 15.7337 8.10025 15.6701C8.09377 15.5428 8.12795 15.4148 8.19737 15.308C8.22824 15.2605 8.23979 15.2512 8.27715 15.2095C10.9977 12.4889 13.7339 9.78416 16.4381 7.04826C16.5233 6.95987 16.6041 6.86711 16.6786 6.76894C16.8555 6.53641 16.9979 6.27785 17.0996 6.00396C17.2362 5.6366 17.2995 5.24296 17.2851 4.85109C17.2714 4.48515 17.1899 4.12204 17.0454 3.78522C16.9109 3.47102 16.7219 3.18062 16.4892 2.93005C16.2886 2.71402 16.056 2.52781 15.8012 2.37931C15.39 2.13995 14.9218 2.00148 14.4467 1.97776C13.9941 1.95549 13.5379 2.03704 13.1216 2.21571C12.8977 2.31165 12.6855 2.43504 12.4914 2.58235C12.3933 2.65672 12.3005 2.73768 12.2121 2.82325C8.86494 6.12606 5.49696 9.40926 2.23759 12.7981C2.06364 12.9836 1.9255 13.1992 1.83572 13.4375C1.75982 13.6385 1.71857 13.8524 1.7135 14.0674C1.70879 14.2586 1.73295 14.451 1.78504 14.6353C1.84432 14.8452 1.94037 15.0447 2.06718 15.2223C2.13083 15.3107 2.20201 15.3927 2.27897 15.4704C2.27968 15.4708 2.27614 15.4676 2.27685 15.4679C2.37679 15.5654 2.48463 15.6534 2.60248 15.7278C2.88616 15.9072 3.21616 16.0092 3.55157 16.0219C3.79388 16.0308 4.03759 15.9931 4.26626 15.9116C4.51682 15.8216 4.74474 15.6794 4.9385 15.4971C7.80214 12.7374 10.6001 9.9088 13.3755 7.06036C13.4593 6.97044 13.524 6.86555 13.5628 6.74864C13.5905 6.66449 13.6048 6.57609 13.6048 6.48723C13.6048 6.41216 13.5945 6.33732 13.5747 6.26507C13.5086 6.02748 13.336 5.82723 13.1102 5.72731C13.0171 5.68594 12.9164 5.66225 12.8147 5.65718C12.7058 5.65176 12.5961 5.66803 12.4933 5.70468C12.3755 5.74675 12.2723 5.81535 12.1828 5.90244L5.57657 12.5087C5.56113 12.5227 5.54604 12.5378 5.52943 12.5511C5.46366 12.6042 5.3867 12.6435 5.30479 12.6654C5.24327 12.6819 5.17928 12.6888 5.11611 12.6856C5.05247 12.6819 4.98953 12.6687 4.93025 12.646C4.87097 12.623 4.81558 12.5909 4.76596 12.5511C4.63326 12.4436 4.55099 12.2818 4.54203 12.1115C4.5352 11.9842 4.56973 11.8562 4.63915 11.7491C4.67002 11.7016 4.68122 11.6926 4.71894 11.6506L11.3306 5.03891C11.3902 4.98069 11.4518 4.9253 11.5172 4.87426C11.662 4.76171 11.8217 4.66861 11.9913 4.59813C12.1607 4.52801 12.3397 4.48098 12.5215 4.45824C12.8548 4.41687 13.1966 4.45894 13.5097 4.57974C13.775 4.68216 14.0184 4.84032 14.2194 5.04127C14.3851 5.20697 14.522 5.40145 14.6223 5.61358C14.7291 5.83975 14.7941 6.08594 14.8125 6.33545C14.8327 6.60322 14.7992 6.87428 14.7147 7.12922C14.6468 7.33488 14.5457 7.52968 14.417 7.70364C14.3667 7.77118 14.312 7.83482 14.2548 7.89634C11.4743 10.7503 8.6388 13.5501 5.80273 16.3493C5.6916 16.4561 5.57445 16.5561 5.4494 16.6462C5.22253 16.8101 4.97352 16.9427 4.71139 17.0405C4.3274 17.1833 3.91587 17.2494 3.50678 17.2343C3.12398 17.2199 2.74473 17.1347 2.39269 16.9837C2.0641 16.8431 1.7604 16.6455 1.49864 16.4025C1.25845 16.1796 1.05325 15.9194 0.893558 15.6332C0.757671 15.3891 0.6549 15.127 0.588681 14.856C0.428045 14.1967 0.487325 13.4902 0.757686 12.8676C0.860811 12.6311 0.993162 12.4072 1.15133 12.2033C1.22428 12.1087 1.30336 12.0192 1.38609 11.9333C4.69343 8.58791 8.01676 5.25855 11.3651 1.95422C11.5766 1.75045 11.8059 1.56707 12.0542 1.41033C12.4882 1.13608 12.972 0.94232 13.4752 0.842032C13.6956 0.797838 13.9181 0.772968 14.1424 0.763304C14.2122 0.761183 14.2815 0.760475 14.3509 0.760829L14.3507 0.761192Z" fill="#1B2559"/>
</svg>
