<svg width="48" height="48" viewBox="0 0 48 48" fill="none" xmlns="http://www.w3.org/2000/svg">
<path d="M35.1215 41.9999C34.8016 42.0012 34.4861 41.9258 34.2015 41.7799L24.0015 36.4399L13.8015 41.7799C13.4703 41.9541 13.0968 42.0318 12.7236 42.0043C12.3504 41.9768 11.9924 41.8452 11.6903 41.6243C11.3882 41.4035 11.1542 41.1023 11.0147 40.755C10.8753 40.4078 10.836 40.0284 10.9015 39.6599L12.9015 28.3999L4.66148 20.3999C4.40439 20.1434 4.22202 19.8217 4.13393 19.4693C4.04585 19.117 4.05537 18.7473 4.16148 18.3999C4.2774 18.0445 4.49063 17.7286 4.77698 17.4882C5.06333 17.2478 5.41132 17.0925 5.78148 17.0399L17.1815 15.3799L22.2015 5.11992C22.3652 4.78178 22.621 4.49661 22.9393 4.29707C23.2576 4.09753 23.6258 3.9917 24.0015 3.9917C24.3772 3.9917 24.7453 4.09753 25.0637 4.29707C25.382 4.49661 25.6377 4.78178 25.8015 5.11992L30.8815 15.3599L42.2815 17.0199C42.6516 17.0725 42.9996 17.2278 43.286 17.4682C43.5723 17.7086 43.7856 18.0245 43.9015 18.3799C44.0076 18.7273 44.0171 19.097 43.929 19.4493C43.8409 19.8017 43.6586 20.1234 43.4015 20.3799L35.1615 28.3799L37.1615 39.6399C37.2329 40.0149 37.1955 40.4024 37.0537 40.7568C36.912 41.1112 36.6718 41.4176 36.3615 41.6399C35.9993 41.8937 35.5632 42.0203 35.1215 41.9999ZM24.0015 32.1999C24.3221 32.1918 24.6392 32.2677 24.9215 32.4199L32.4615 36.4199L31.0215 27.9999C30.9656 27.6784 30.9893 27.3481 31.0903 27.0379C31.1914 26.7276 31.3669 26.4468 31.6015 26.2199L37.6015 20.3599L29.2015 19.1199C28.8934 19.0579 28.6044 18.9242 28.3577 18.7296C28.1109 18.535 27.9136 18.285 27.7815 17.9999L24.0015 10.4999L20.2215 17.9999C20.0768 18.2873 19.8649 18.5356 19.6037 18.7236C19.3426 18.9116 19.0399 19.0338 18.7215 19.0799L10.3215 20.3199L16.3215 26.1799C16.556 26.4068 16.7315 26.6876 16.8326 26.9979C16.9337 27.3081 16.9573 27.6384 16.9015 27.9599L15.4615 36.2799L23.0015 32.2799C23.321 32.1611 23.6672 32.1335 24.0015 32.1999Z" fill="#1294F2"/>
</svg>
