<svg width="131" height="131" viewBox="0 0 131 131" fill="none" xmlns="http://www.w3.org/2000/svg">
<circle cx="65.5" cy="65.5" r="65.5" fill="#F2F6FC"/>
<path fill-rule="evenodd" clip-rule="evenodd" d="M76.5315 46.233C76.5315 46.78 76.0927 47.2235 75.5428 47.2235H61.1009C60.5509 47.2235 60.1063 46.7796 60.1063 46.233C60.1063 45.686 60.5509 45.243 61.1009 45.243H75.5428C76.0923 45.243 76.5315 45.6864 76.5315 46.233ZM76.5315 42.1719C76.5315 42.7176 76.0927 43.1619 75.5428 43.1619H68.319C67.7762 43.1619 67.3315 42.7176 67.3315 42.1719C67.3315 41.6245 67.7762 41.1819 68.319 41.1819L75.5428 41.1823C76.0923 41.1823 76.5315 41.6245 76.5315 42.1719V42.1719ZM56.9867 51.909C57.3769 52.2941 57.3827 52.9214 56.9988 53.3091L53.1532 57.185C52.961 57.3805 52.7085 57.4783 52.4506 57.4783C52.2027 57.4783 51.9556 57.3851 51.7634 57.1975L49.6216 55.1098C49.2256 54.7279 49.2198 54.1015 49.5996 53.7097C49.9843 53.3187 50.6104 53.3108 51.0009 53.6922L52.4394 55.0949L55.592 51.9164C55.9713 51.5267 56.6024 51.525 56.9868 51.9089L56.9867 51.909ZM56.9867 61.1701C57.3769 61.5561 57.3827 62.1826 56.9988 62.5711L53.1532 66.4479C52.961 66.6421 52.7085 66.7407 52.4506 66.7407C52.2027 66.7407 51.9556 66.6476 51.7634 66.46L49.6216 64.3718C49.2256 63.9896 49.2198 63.3635 49.5996 62.9717C49.9843 62.5807 50.6104 62.572 51.0009 62.9543L52.4394 64.3569L55.592 61.1777C55.9713 60.7892 56.6024 60.7867 56.9868 61.1702L56.9867 61.1701ZM56.9867 70.4329C57.3769 70.8177 57.3827 71.4441 56.9988 71.8327L53.1532 75.7099C52.961 75.905 52.7085 76.0028 52.4506 76.0028C52.2027 76.0028 51.9556 75.9092 51.7634 75.722L49.6216 73.633C49.2256 73.2511 49.2198 72.6251 49.5996 72.2332C49.9843 71.8414 50.6104 71.8331 51.0009 72.2157L52.4394 73.6184L55.592 70.4392C55.9713 70.0503 56.6024 70.0482 56.9868 70.433L56.9867 70.4329ZM60.1069 56.582C60.1069 56.0346 60.5516 55.592 61.1015 55.592H68.3194C68.8693 55.592 69.3139 56.0345 69.3139 56.582C69.3139 57.1281 68.8693 57.572 68.3194 57.572H61.1015C60.5516 57.572 60.1069 57.1281 60.1069 56.582ZM76.5317 52.5204C76.5317 53.0666 76.0928 53.5104 75.5429 53.5104L61.101 53.51C60.551 53.51 60.1064 53.0662 60.1064 52.52C60.1064 51.9726 60.5511 51.5296 61.101 51.5296H75.5429C76.0924 51.5304 76.5317 51.973 76.5317 52.5204V52.5204ZM60.1069 65.8431C60.1069 65.2962 60.5516 64.8531 61.1015 64.8531H68.3194C68.8693 64.8531 69.3139 65.2962 69.3139 65.8431C69.3139 66.3901 68.8693 66.8332 68.3194 66.8332H61.1015C60.5516 66.8332 60.1069 66.3901 60.1069 65.8431ZM76.5317 61.782C76.5317 62.3282 76.0928 62.772 75.5429 62.772H61.101C60.551 62.772 60.1064 62.3282 60.1064 61.782C60.1064 61.2346 60.5511 60.7916 61.101 60.7916H75.5429C76.0924 60.7916 76.5317 61.2342 76.5317 61.782ZM76.5317 71.0428C76.5317 71.5898 76.0928 72.0328 75.5429 72.0328L61.101 72.0323C60.551 72.0323 60.1064 71.5893 60.1064 71.0423C60.1064 70.4953 60.5511 70.0523 61.101 70.0523L75.5429 70.0527C76.0924 70.0527 76.5317 70.4958 76.5317 71.0428ZM60.1069 75.1035C60.1069 74.5577 60.5516 74.1143 61.1015 74.1143H68.3194C68.8693 74.1143 69.3139 74.5581 69.3139 75.1035C69.3139 75.6513 68.8693 76.0935 68.3194 76.0935H61.1015C60.5516 76.0935 60.1069 75.6517 60.1069 75.1035ZM76.5317 80.3044C76.5317 80.8518 76.0928 81.2935 75.5429 81.2935H61.101C60.551 81.2935 60.1064 80.8518 60.1064 80.3044C60.1064 79.7582 60.5511 79.3143 61.101 79.3143H75.5429C76.0924 79.3143 76.5317 79.7582 76.5317 80.3044ZM69.3142 84.3655C69.3142 84.9133 68.8695 85.3555 68.3196 85.3555L61.1013 85.3551C60.5514 85.3551 60.1067 84.9133 60.1067 84.3651C60.1067 83.8193 60.5514 83.3759 61.1013 83.3759H68.3192C68.8691 83.3759 69.3142 83.8197 69.3142 84.3655ZM55.1907 84.2257H51.4112V80.445H55.1907V84.2257ZM56.1794 78.4645H50.4225C49.8738 78.4645 49.4291 78.9075 49.4291 79.4545V85.2157C49.4291 85.7631 49.8738 86.2049 50.4225 86.2049H56.1794C56.7294 86.2049 57.174 85.7632 57.174 85.2157V79.4545C57.174 78.9075 56.7293 78.4645 56.1794 78.4645ZM88.0194 93.4197V42.9975H83.8502V89.354C83.8502 89.9018 83.4101 90.3444 82.8614 90.3444L50.0993 90.3448V93.4201L88.0194 93.4197ZM43.9844 50.785V88.3647H81.8718V37.9809H56.7896V47.5661C56.7896 49.3415 55.3441 50.7852 53.5646 50.7852L43.9844 50.785ZM54.8057 39.3801V47.566C54.8057 48.2494 54.2513 48.8052 53.5641 48.8052H45.3845L54.8057 39.3801ZM89.0055 41.0178H83.8487V36.99C83.8487 36.4438 83.4086 36 82.8599 36L55.8002 36.0004C55.5361 36.0004 55.2832 36.1052 55.0964 36.2904L42.2912 49.0956C42.1044 49.2823 42 49.5332 42 49.7956V89.3549C42 89.9028 42.4447 90.3454 42.9888 90.3454H48.1198V94.4107C48.1198 94.9585 48.5645 95.4011 49.1086 95.4011H89.0054C89.5553 95.4011 90 94.9585 90 94.4107V42.0089C90 41.4631 89.5549 41.0189 89.005 41.0189L89.0055 41.0178Z" fill="#1B2559"/>
</svg>
