<svg width="131" height="131" viewBox="0 0 131 131" fill="none" xmlns="http://www.w3.org/2000/svg">
<circle cx="65.5" cy="65.5" r="65.5" fill="#F2F6FC"/>
<path d="M48.3481 36.0007C44.8526 36.0007 42.0001 38.8341 42.0001 42.3277V78.3759C41.9955 78.7327 42.1334 79.0764 42.3839 79.3301C42.6343 79.5842 42.9757 79.7268 43.3325 79.7268C43.6889 79.7268 44.0308 79.5842 44.2812 79.3301C44.5311 79.0764 44.6696 78.7327 44.6645 78.3759V42.3277C44.6645 40.2659 46.2803 38.6645 48.3481 38.6645H51.9282V75.4417C51.9231 75.798 52.0611 76.1418 52.3115 76.3955C52.5619 76.6496 52.9038 76.7927 53.2602 76.7927C53.617 76.7927 53.9584 76.6496 54.2088 76.3955C54.4592 76.1418 54.5972 75.798 54.5921 75.4417V38.6645H64.666L64.7491 53.2955C64.7514 53.8163 65.0571 54.2878 65.5315 54.5029C66.0063 54.7175 66.5624 54.6362 66.9554 54.2947L72.7831 49.2578L78.5898 54.2947C78.9828 54.6362 79.5389 54.7175 80.0133 54.5029C80.4876 54.2878 80.7933 53.8162 80.7961 53.2955L80.9001 38.6645H87.2895V81.8509C85.2092 82.9771 83.7932 85.2321 83.7932 87.8658C83.7932 89.3431 84.1997 90.7652 84.9379 91.9452L48.3902 91.8412C46.3396 91.8365 44.6648 90.1339 44.6648 87.8658C44.6648 85.5977 46.3433 83.8699 48.3902 83.8699H81.6078C81.9641 83.8745 82.3079 83.7366 82.562 83.4862C82.8157 83.2357 82.9588 82.8943 82.9588 82.5375C82.9588 82.1812 82.8157 81.8392 82.562 81.5888C82.3079 81.3389 81.9641 81.2004 81.6078 81.2055H48.3902C44.8381 81.2055 42.0004 84.2397 42.0004 87.8657C42.0004 91.4922 44.8413 94.4976 48.3902 94.5049L88.6212 94.609C89.3018 94.6327 89.8904 94.1398 89.9865 93.4661C90.0827 92.7925 89.6557 92.1547 88.996 91.9869C87.7273 91.6184 86.4566 89.8289 86.4566 87.8657C86.4566 85.9023 87.6227 84.3604 89.0373 83.8902C89.5855 83.71 89.9548 83.1976 89.9534 82.621V37.3319C89.953 36.596 89.3569 36 88.6211 36L48.3481 36.0007ZM67.3295 38.6645H78.2354L78.1523 50.382L73.6565 46.4902C73.1553 46.0544 72.4097 46.0544 71.9084 46.4902L67.3917 50.382L67.3295 38.6645Z" fill="#1B2559"/>
</svg>
