<svg width="32" height="32" viewBox="0 0 32 32" fill="none" xmlns="http://www.w3.org/2000/svg">
<path d="M26.0003 27.3334H6.00033C5.12914 27.3441 4.28921 27.0092 3.66446 26.4019C3.0397 25.7946 2.68104 24.9646 2.66699 24.0934V7.90675C2.68104 7.03561 3.0397 6.20553 3.66446 5.59827C4.28921 4.99101 5.12914 4.65606 6.00033 4.66675H12.1337C12.3306 4.66805 12.5248 4.71297 12.7023 4.79827C12.8798 4.88357 13.0363 5.00713 13.1603 5.16009L16.627 9.40009H25.9603C26.395 9.38947 26.8276 9.46505 27.2329 9.62246C27.6383 9.77987 28.0084 10.016 28.3221 10.3172C28.6357 10.6185 28.8865 10.9788 29.0602 11.3775C29.2338 11.7762 29.3267 12.2053 29.3337 12.6401V24.0934C29.3196 24.9646 28.9609 25.7946 28.3362 26.4019C27.7114 27.0092 26.8715 27.3441 26.0003 27.3334ZM5.33366 18.3468V24.0934C5.33868 24.1752 5.36005 24.2552 5.39651 24.3286C5.43297 24.4021 5.48377 24.4674 5.54592 24.5209C5.60807 24.5743 5.68031 24.6148 5.75835 24.6398C5.8364 24.6649 5.91868 24.674 6.00033 24.6668H26.0003C26.082 24.674 26.1643 24.6649 26.2423 24.6398C26.3203 24.6148 26.3926 24.5743 26.4547 24.5209C26.5169 24.4674 26.5677 24.4021 26.6041 24.3286C26.6406 24.2552 26.662 24.1752 26.667 24.0934V12.6401C26.662 12.5583 26.6406 12.4783 26.6041 12.4049C26.5677 12.3315 26.5169 12.2661 26.4547 12.2126C26.3926 12.1592 26.3203 12.1187 26.2423 12.0937C26.1643 12.0686 26.082 12.0595 26.0003 12.0668H16.0003C15.8034 12.0655 15.6092 12.0205 15.4317 11.9352C15.2541 11.8499 15.0977 11.7264 14.9737 11.5734L11.507 7.33342H6.00033C5.91868 7.32614 5.8364 7.3353 5.75835 7.36035C5.68031 7.38541 5.60807 7.42586 5.54592 7.47931C5.48377 7.53276 5.43297 7.59812 5.39651 7.67154C5.36005 7.74495 5.33868 7.82493 5.33366 7.90675V18.3468Z" fill="#96A5B8"/>
</svg>
