<svg width="24" height="25" viewBox="0 0 24 25" fill="none" xmlns="http://www.w3.org/2000/svg">
<path d="M13.4099 12.0021L17.7099 7.71214C17.8982 7.52384 18.004 7.26844 18.004 7.00214C18.004 6.73584 17.8982 6.48044 17.7099 6.29214C17.5216 6.10383 17.2662 5.99805 16.9999 5.99805C16.7336 5.99805 16.4782 6.10383 16.2899 6.29214L11.9999 10.5921L7.70994 6.29214C7.52164 6.10383 7.26624 5.99805 6.99994 5.99805C6.73364 5.99805 6.47824 6.10383 6.28994 6.29214C6.10164 6.48044 5.99585 6.73584 5.99585 7.00214C5.99585 7.26844 6.10164 7.52384 6.28994 7.71214L10.5899 12.0021L6.28994 16.2921C6.19621 16.3851 6.12182 16.4957 6.07105 16.6176C6.02028 16.7394 5.99414 16.8701 5.99414 17.0021C5.99414 17.1342 6.02028 17.2649 6.07105 17.3867C6.12182 17.5086 6.19621 17.6192 6.28994 17.7121C6.3829 17.8059 6.4935 17.8803 6.61536 17.931C6.73722 17.9818 6.86793 18.0079 6.99994 18.0079C7.13195 18.0079 7.26266 17.9818 7.38452 17.931C7.50637 17.8803 7.61698 17.8059 7.70994 17.7121L11.9999 13.4121L16.2899 17.7121C16.3829 17.8059 16.4935 17.8803 16.6154 17.931C16.7372 17.9818 16.8679 18.0079 16.9999 18.0079C17.132 18.0079 17.2627 17.9818 17.3845 17.931C17.5064 17.8803 17.617 17.8059 17.7099 17.7121C17.8037 17.6192 17.8781 17.5086 17.9288 17.3867C17.9796 17.2649 18.0057 17.1342 18.0057 17.0021C18.0057 16.8701 17.9796 16.7394 17.9288 16.6176C17.8781 16.4957 17.8037 16.3851 17.7099 16.2921L13.4099 12.0021Z" fill="#1294F2"/>
</svg>
