<svg width="40" height="40" viewBox="0 0 40 40" fill="none" xmlns="http://www.w3.org/2000/svg">
<circle cx="20" cy="20" r="20" fill="#1294F2"/>
<path d="M20.2273 27.2527C18.2879 27.2527 16.6288 26.9734 15.25 26.4149C13.8712 25.8404 12.8182 25.0106 12.0909 23.9255C11.3636 22.8404 11 21.5239 11 19.9761C11 18.4282 11.3636 17.1117 12.0909 16.0266C12.8182 14.9415 13.8712 14.1117 15.25 13.5372C16.6288 12.9628 18.2879 12.6755 20.2273 12.6755C20.2576 12.6755 20.3106 12.6755 20.3864 12.6755C20.4773 12.6755 20.5606 12.6755 20.6364 12.6755C20.7273 12.6755 20.7803 12.6755 20.7955 12.6755C22.7348 12.6755 24.3864 12.9628 25.75 13.5372C27.1288 14.1117 28.1818 14.9415 28.9091 16.0266C29.6364 17.1117 30 18.4282 30 19.9761C30 21.508 29.6364 22.8245 28.9091 23.9255C28.197 25.0106 27.1591 25.8404 25.7955 26.4149C24.447 26.9734 22.8106 27.2527 20.8864 27.2527C20.8561 27.2527 20.7879 27.2527 20.6818 27.2527C20.5909 27.2527 20.5 27.2527 20.4091 27.2527C20.3182 27.2527 20.2576 27.2527 20.2273 27.2527ZM20.4773 25.3856C20.5076 25.3856 20.5455 25.3856 20.5909 25.3856C20.6364 25.3856 20.6591 25.3856 20.6591 25.3856C22.2045 25.3697 23.5076 25.1622 24.5682 24.7633C25.6288 24.3484 26.4318 23.742 26.9773 22.9441C27.5379 22.1303 27.8182 21.133 27.8182 19.9521C27.8182 18.7872 27.5379 17.8059 26.9773 17.008C26.4167 16.2101 25.6061 15.6037 24.5455 15.1888C23.5 14.7739 22.2197 14.5665 20.7045 14.5665C20.6894 14.5665 20.6515 14.5665 20.5909 14.5665C20.5455 14.5665 20.5076 14.5665 20.4773 14.5665C18.9167 14.5665 17.5909 14.7739 16.5 15.1888C15.4242 15.5878 14.6061 16.1862 14.0455 16.984C13.4848 17.7819 13.2045 18.7793 13.2045 19.9761C13.2045 21.1729 13.4924 22.1702 14.0682 22.9681C14.6439 23.766 15.4697 24.3723 16.5455 24.7872C17.6364 25.1862 18.947 25.3856 20.4773 25.3856ZM19.4545 29V11H21.5682V29H19.4545Z" fill="white"/>
</svg>
