<svg width="50" height="49" viewBox="0 0 50 49" fill="none" xmlns="http://www.w3.org/2000/svg">
<path d="M20.818 12.6686L20.852 12.705L23.1725 10.5365L23.2116 10.5L23.1725 10.4635L20.852 8.29504L20.7678 8.21642V8.33157V12.6467V12.6684V12.6686H20.8178H20.818ZM21.4247 7.79914L21.3907 7.83548L24.9657 11.176L24.9999 11.2079L25.034 11.176L28.609 7.83548L28.7016 7.74894H28.5749H21.4446H21.4249H21.4247V7.79894V7.79914ZM29.1819 8.3313H29.1818L29.1478 8.29495L26.827 10.4634L26.7879 10.4999L26.827 10.5364L29.1478 12.7049L29.2319 12.7835V12.6683V8.35319V8.33148V8.3313H29.1819ZM28.5749 13.251H28.7016L28.609 13.1644L26.3069 11.0132L26.2727 10.9813L26.2386 11.0132L24.9998 12.1708L23.761 11.0132L23.7268 10.9813L23.6927 11.0132L21.3907 13.1644L21.2981 13.251H21.4248H28.5749ZM29.95 13.95H20.05V7.05H29.95V13.95Z" fill="#1B2559" stroke="white" stroke-width="0.1"/>
<path d="M23.9883 18.5838L23.9961 18.5844C24.3822 18.615 24.7753 18.6305 25.1691 18.6318L25.1696 18.6314H25.2268C28.4076 18.6314 31.2854 17.7009 33.3629 16.2083C35.4409 14.7153 36.7053 12.6719 36.7053 10.439C36.7053 8.20594 35.4409 6.16215 33.3627 4.66891C31.2851 3.17598 28.4071 2.24525 25.2258 2.24544C22.0447 2.24544 19.1684 3.17614 17.0924 4.66898C15.0159 6.16211 13.7531 8.20579 13.7531 10.439C13.7531 13.1022 15.5884 15.6327 18.7272 17.1832C19.0104 17.3226 19.1694 17.6294 19.1216 17.9409L23.9883 18.5838ZM23.9883 18.5838H23.9877C23.8426 18.5735 23.698 18.6083 23.5734 18.6825C23.5732 18.6827 23.5729 18.6828 23.5727 18.683L18.5586 21.6271M23.9883 18.5838L18.5586 21.6271M18.5586 21.6271L19.1216 17.9411L18.5586 21.6271ZM17.6144 18.2342L16.8998 22.9096L16.8997 22.9096C16.8564 23.1862 16.9767 23.4622 17.2082 23.619C17.4398 23.7758 17.741 23.7846 17.9812 23.6423C17.9812 23.6423 17.9813 23.6423 17.9813 23.6423L24.1087 20.0419C24.4789 20.0647 24.8528 20.0772 25.2216 20.0772C28.767 20.0772 31.9895 19.0071 34.3303 17.2701C36.671 15.5332 38.1407 13.1192 38.1407 10.4393C38.1407 7.75912 36.6721 5.34475 34.3324 3.60753C31.9926 1.87022 28.771 0.8 25.2254 0.8V0.800074C21.6802 0.800199 18.4582 1.87023 16.1177 3.60728C13.7773 5.34435 12.3078 7.75862 12.3078 10.439C12.3078 13.5589 14.3011 16.4356 17.6144 18.2342Z" fill="#1B2559" stroke="#1B2559" stroke-width="0.4"/>
<path d="M13.8877 23.5837C13.7968 24.672 13.4353 25.7235 12.8323 26.641C12.2046 27.5961 11.34 28.3689 10.3258 28.8854C11.1028 29.3328 11.7607 29.964 12.2404 30.7263C12.7926 31.604 13.086 32.6194 13.0867 33.6566V33.6568V47.3908C13.0867 47.7896 12.7634 48.113 12.3646 48.113C11.9658 48.113 11.6425 47.7896 11.6425 47.3908V33.6569C11.6415 32.581 11.2138 31.5495 10.4535 30.7885L13.8877 23.5837ZM13.8877 23.5837L13.9104 23.612L13.9106 23.0432C13.9109 21.4583 13.3374 19.9268 12.2957 18.7327C11.2544 17.5383 9.81519 16.7616 8.24493 16.5466C6.67509 16.3315 5.08012 16.6924 3.75567 17.5625L3.75567 17.5625C2.43121 18.4327 1.4668 19.7533 1.04098 21.2801C0.615129 22.8065 0.757082 24.4357 1.43989 25.8655M13.8877 23.5837L1.43989 25.8655M1.43989 25.8655C2.06403 27.1728 3.10156 28.233 4.38639 28.8857C3.60989 29.3331 2.95208 29.9642 2.47258 30.7263C1.92034 31.604 1.627 32.6194 1.62585 33.6565V33.6568V45.0393C1.62585 46.1379 2.21223 47.153 3.1636 47.7023C4.11496 48.2516 5.28693 48.2516 6.23826 47.7023C7.18959 47.153 7.77563 46.1378 7.77563 45.0393V33.7131C7.77563 33.3143 7.45225 32.991 7.05349 32.991C6.65475 32.991 6.33136 33.3143 6.33136 33.7131V45.0344C6.30295 45.5956 5.98742 46.1027 5.49616 46.3761C5.00354 46.6501 4.40428 46.6501 3.91164 46.3761C3.42069 46.1027 3.10486 45.5955 3.07645 45.0344L3.07645 33.657C3.07645 33.657 3.07645 33.6569 3.07645 33.6568C3.07792 32.581 3.50589 31.5491 4.26649 30.7881C5.02755 30.0271 6.05908 29.5988 7.13538 29.5973H7.58567C8.6616 29.5991 9.69276 30.0274 10.4535 30.7885L1.43989 25.8655ZM7.3777 28.152C8.72332 28.1437 10.0114 27.6058 10.9636 26.6543L7.3777 28.152ZM7.3777 28.152H7.35213C5.99691 28.152 4.69702 27.6136 3.73874 26.655L3.73872 26.655C2.78043 25.6967 2.24211 24.3968 2.24211 23.0416C2.24211 21.6864 2.78081 20.3865 3.7391 19.4282C4.69776 18.4699 5.99766 17.9319 7.35289 17.9319C8.70808 17.9319 10.008 18.4706 10.9659 19.4293L10.9659 19.4293C11.9242 20.3879 12.4625 21.6874 12.4622 23.0429C12.4607 24.3974 11.9217 25.6963 10.9637 26.6543L7.3777 28.152Z" fill="#1B2559" stroke="#1B2559" stroke-width="0.4"/>
<path d="M45.6135 28.8861C46.3903 29.3332 47.0486 29.9642 47.5284 30.7263C48.0811 31.604 48.3744 32.6199 48.3756 33.657V33.6572V45.0397C48.3756 46.1383 47.7895 47.1534 46.8382 47.7027C45.8869 48.252 44.7149 48.252 43.7636 47.7027C42.8122 47.1535 42.2258 46.1383 42.2258 45.0397V33.7136C42.2258 33.3148 42.5492 32.9914 42.9479 32.9914C43.3472 32.9914 43.6701 33.3149 43.6701 33.7136V45.0348C43.6985 45.596 44.0143 46.1032 44.5056 46.3765L44.5057 46.3765C44.9979 46.6506 45.5971 46.6506 46.0898 46.3765C46.581 46.1032 46.8966 45.596 46.925 45.0348V33.6574C46.9239 32.5815 46.496 31.5496 45.7349 30.7886L45.7349 30.7886C44.9743 30.0276 43.9424 29.5992 42.8664 29.5978H42.4157C41.3397 29.5993 40.3078 30.0272 39.5468 30.7882C38.7862 31.5492 38.3583 32.581 38.3572 33.6572C38.3572 33.6573 38.3572 33.6574 38.3572 33.6574M45.6135 28.8861L37.1129 47.3913C37.1129 47.6796 37.3467 47.9134 37.635 47.9134C37.9233 47.9134 38.1572 47.6796 38.1572 47.3913V33.6572L38.3572 33.6574M45.6135 28.8861C47.2868 28.0359 48.5226 26.5045 48.993 24.6742C49.4977 22.7115 49.0664 20.6262 47.8247 19.0248C46.5833 17.4233 44.6707 16.4863 42.6445 16.4863C40.618 16.4863 38.7057 17.4234 37.464 19.0248L37.464 19.0248C36.2222 20.6263 35.791 22.7117 36.2957 24.6743L36.2957 24.6743C36.7665 26.5045 38.0019 28.0359 39.6752 28.886C38.8984 29.3332 38.2403 29.9643 37.7604 30.7263L37.7604 30.7263C37.2078 31.604 36.914 32.6198 36.9129 33.657V33.6572V47.3913C36.9129 47.79 37.2363 48.1134 37.635 48.1134C38.0338 48.1134 38.3572 47.79 38.3572 47.3913L38.3572 33.6574M45.6135 28.8861L38.3572 33.6574M39.0345 26.6553L39.0345 26.6553C39.993 27.6132 41.2923 28.1516 42.6475 28.1524C44.0026 28.1513 45.3017 27.6119 46.2593 26.6533C47.2165 25.6943 47.7542 24.3943 47.7535 23.0395C47.7527 21.6843 47.2137 20.3851 46.255 19.4272C45.2964 18.4696 43.9964 17.9319 42.6412 17.9323C41.2864 17.9327 39.9869 18.4717 39.0289 19.43L39.0345 26.6553ZM39.0345 26.6553C38.0757 25.6973 37.5363 24.3985 37.5346 23.0432L37.5344 22.9401M39.0345 26.6553L37.5344 22.9401M37.5344 22.9401C37.5607 21.6224 38.0954 20.3642 39.0289 19.43L37.5344 22.9401ZM39.8947 28.9925C39.0939 29.4263 38.4166 30.0596 37.9296 30.8329L39.8947 28.9925ZM36.4894 24.6244C36.9573 26.4437 38.2045 27.9583 39.8895 28.7689L47.6666 19.1473C46.4632 17.5947 44.6089 16.6863 42.6445 16.6863C40.6798 16.6863 38.8259 17.5948 37.622 19.1473C36.4182 20.6999 36.0001 22.7217 36.4894 24.6244Z" fill="#1B2559" stroke="#1B2559" stroke-width="0.4"/>
</svg>
