<svg width="32" height="32" viewBox="0 0 32 32" fill="none" xmlns="http://www.w3.org/2000/svg">
<path d="M16 18.002C17.1046 18.002 18 17.1065 18 16.002C18 14.8974 17.1046 14.002 16 14.002C14.8954 14.002 14 14.8974 14 16.002C14 17.1065 14.8954 18.002 16 18.002Z" fill="#FFC44C"/>
<path d="M29.16 15.3345C28.3067 13.8545 23.6133 6.4278 15.64 6.6678C8.26668 6.85446 4.00001 13.3345 2.84001 15.3345C2.72299 15.5372 2.66138 15.7671 2.66138 16.0011C2.66138 16.2352 2.72299 16.4651 2.84001 16.6678C3.68001 18.1211 8.17334 25.3345 16.0267 25.3345H16.36C23.7333 25.1478 28.0133 18.6678 29.16 16.6678C29.277 16.4651 29.3386 16.2352 29.3386 16.0011C29.3386 15.7671 29.277 15.5372 29.16 15.3345ZM16 20.6678C15.077 20.6678 14.1748 20.3941 13.4073 19.8813C12.6399 19.3685 12.0418 18.6397 11.6886 17.787C11.3354 16.9343 11.2429 15.996 11.423 15.0907C11.6031 14.1855 12.0475 13.3539 12.7002 12.7013C13.3528 12.0487 14.1843 11.6042 15.0896 11.4241C15.9948 11.2441 16.9331 11.3365 17.7859 11.6897C18.6386 12.0429 19.3674 12.641 19.8802 13.4085C20.393 14.1759 20.6667 15.0782 20.6667 16.0011C20.6667 17.2388 20.175 18.4258 19.2998 19.301C18.4247 20.1761 17.2377 20.6678 16 20.6678Z" fill="#FFC44C"/>
</svg>
