<svg width="32" height="33" viewBox="0 0 32 33" fill="none" xmlns="http://www.w3.org/2000/svg">
<path d="M8.61314 5.13889C10.7801 3.64258 13.3275 2.84414 15.9331 2.84414C17.6631 2.84414 19.3763 3.19628 20.9749 3.88055C22.5735 4.56482 24.0262 5.56786 25.25 6.83257C26.4738 8.09728 27.4448 9.5989 28.1073 11.2518C28.7698 12.9046 29.1108 14.6763 29.1108 16.4655C29.1108 19.1602 28.3376 21.7942 26.8891 24.0344C25.4408 26.2744 23.3825 28.0199 20.9749 29.0504C18.5674 30.081 15.9184 30.3505 13.3628 29.8252C10.8072 29.2999 8.45928 28.0031 6.61611 26.0984C4.77291 24.1936 3.51732 21.7664 3.00861 19.1235C2.49989 16.4806 2.76101 13.7411 3.75881 11.2518C4.7566 8.7624 6.44609 6.63524 8.61314 5.13889ZM9.97485 25.6749C11.7382 26.8925 13.8117 27.5426 15.9331 27.5426C18.7778 27.5426 21.5054 26.3747 23.516 24.297C25.5264 22.2194 26.6553 19.4023 26.6553 16.4655C26.6553 14.2754 26.0268 12.1342 24.8491 10.3126C23.6713 8.4911 21.997 7.07086 20.0374 6.23206C18.0777 5.39323 15.9212 5.1737 13.8406 5.60138C11.7601 6.02905 9.84945 7.08459 8.35015 8.63398C6.85088 10.1833 5.83022 12.1569 5.41674 14.3051C5.00327 16.4532 5.21545 18.6798 6.02658 20.7034C6.83772 22.7271 8.21156 24.4573 9.97485 25.6749Z" fill="#5DC983" stroke="white" stroke-width="0.2"/>
<path d="M14.436 18.2891L12.3343 15.4776C12.1178 15.1901 11.7995 15.0033 11.4497 14.9583C11.0998 14.9133 10.747 15.0137 10.4688 15.2375C10.1906 15.4613 10.0098 15.7902 9.96625 16.1517C9.92268 16.5132 10.0199 16.8779 10.2364 17.1654L13.4629 21.4327C13.588 21.5962 13.7474 21.7282 13.9292 21.8185C14.1109 21.9089 14.3102 21.9552 14.5119 21.9541L14.436 18.2891ZM14.436 18.2891L14.4179 18.3138L14.4986 18.3728L14.5787 18.313L14.5604 18.2884L19.4444 11.6122H19.5043H19.5176L14.436 18.2891ZM19.5983 11.5712L19.6877 11.449C19.8791 11.2484 20.1301 11.118 20.402 11.0802C20.7257 11.0351 21.054 11.1246 21.3146 11.33C21.5753 11.5355 21.7472 11.8402 21.7912 12.1778C21.8352 12.5153 21.7476 12.8567 21.5483 13.1268L21.5483 13.1268L15.4806 21.3592C15.4806 21.3593 15.4805 21.3594 15.4804 21.3595C15.3658 21.5133 15.2189 21.6376 15.051 21.7233C14.8831 21.8089 14.6986 21.8536 14.5116 21.8541L14.5113 21.8541C14.3254 21.8551 14.1415 21.8124 13.9737 21.729C13.8059 21.6456 13.6584 21.5236 13.5425 21.3721C13.5425 21.3721 13.5424 21.372 13.5424 21.372L10.3163 17.1052C10.3163 17.1052 10.3163 17.1052 10.3163 17.1051C10.1155 16.8386 10.025 16.4999 10.0655 16.1637C10.1061 15.8275 10.2741 15.5225 10.5315 15.3154C10.7888 15.1084 11.1144 15.016 11.4369 15.0575C11.7594 15.099 12.0536 15.2713 12.2544 15.5377C12.2544 15.5377 12.2544 15.5378 12.2545 15.5378L14.4185 18.4327L14.4995 18.541L14.5793 18.4319L19.5983 11.5712Z" fill="#5DC983" stroke="white" stroke-width="0.2"/>
</svg>
