<svg width="64" height="59" viewBox="0 0 64 59" fill="none" xmlns="http://www.w3.org/2000/svg">
<path d="M52.7395 44.5311C52.7309 41.5176 55.2177 39.3693 58.3298 39.7225C58.3218 35.3408 58.3138 30.9606 58.3068 26.5801C49.8819 27.929 41.3734 29.4745 32.8389 31.5752C32.8405 40.5947 32.8421 49.6153 32.8437 58.6354C41.4271 57.3025 49.991 57.0304 58.3624 57.5848C58.3586 55.4687 58.3543 53.3536 58.3506 51.2376C55.246 50.4029 52.747 47.5476 52.74 44.5315L52.7395 44.5311Z" fill="#E9EDF7"/>
<path d="M58.8636 40.5078C56.0156 40.0262 53.6981 41.9425 53.7051 44.6758C53.7121 47.415 56.0403 50.0272 58.8801 50.6577C61.7211 51.2866 63.9979 49.5728 63.9995 46.6827C64.0006 43.7984 61.7125 40.9836 58.8636 40.508V40.5078Z" fill="#E9EDF7"/>
<path d="M5.66938 39.7231C8.78094 39.3701 11.2693 41.5178 11.2612 44.5317C11.2543 47.5484 8.75406 50.4032 5.64894 51.2401C5.64519 53.3562 5.64198 55.4713 5.6377 57.5884C14.01 57.0334 22.5724 57.305 31.1564 58.6379C31.158 49.6178 31.1596 40.5964 31.1612 31.5763C22.6276 29.4758 14.1181 27.929 5.69326 26.5801C5.68576 30.9602 5.67826 35.3408 5.67022 39.7225L5.66938 39.7231Z" fill="#E9EDF7"/>
<path d="M10.2939 44.6772C10.3008 41.9428 7.9827 40.0266 5.13597 40.5077C2.28704 40.984 -0.00164486 43.7981 8.8701e-07 46.684C0.0016081 49.5722 2.28005 51.2875 5.11937 50.6585C7.9587 50.0285 10.2876 47.4148 10.2939 44.6772Z" fill="#E9EDF7"/>
<path d="M46.4605 14.462C46.4599 6.48671 39.9723 0 31.9985 0C24.0247 0 17.5378 6.48658 17.5378 14.4606C17.5378 22.4354 24.0244 28.9213 31.9985 28.9213C39.9732 28.9213 46.4605 22.4347 46.4605 14.462Z" fill="#E9EDF7"/>
</svg>
