<svg width="64" height="62" viewBox="0 0 64 62" fill="none" xmlns="http://www.w3.org/2000/svg">
<path d="M23.6272 34.0783H40.3731C45.5985 31.9734 50.1376 28.1064 50.1376 23.2565C50.1376 16.2463 39.7984 0 31.9999 0C24.1967 0 13.8623 16.2457 13.8623 23.2565C13.8623 28.1064 18.4014 31.9734 23.6268 34.0783H23.6272ZM42.2567 20.9389C42.2567 26.5906 37.6525 30.2673 32.0009 30.2673C26.3445 30.2673 21.745 26.5906 21.745 20.9389C21.745 14.61 42.257 14.61 42.257 20.9384L42.2567 20.9389Z" fill="#E9EDF7"/>
<path d="M9.17456 35.4128C9.87756 34.5662 10.921 34.077 12.0217 34.0775H16.1062C15.6702 33.7389 15.2485 33.3865 14.8498 33.0202C13.2761 31.6175 12.0143 29.9005 11.145 27.9805C9.86049 29.0377 8.35843 30.3311 6.81474 31.7962C4.30522 34.1791 1.77359 40.2434 0.474314 43.6846C-0.117373 45.256 -0.156631 46.9821 0.362996 48.5789L3.45262 58.1097C3.7547 59.0418 4.34409 59.8538 5.1362 60.4302C5.92881 61.0062 6.88303 61.3166 7.86281 61.3166H12.5497L8.37233 38.4539H8.37279C8.17648 37.3713 8.47025 36.2576 9.17464 35.4123L9.17456 35.4128Z" fill="#E9EDF7"/>
<path d="M63.5264 43.6846C62.2271 40.2431 59.6955 34.1788 57.186 31.7962C55.6418 30.3311 54.1398 29.0373 52.8557 27.9805C51.9864 29.9005 50.7246 31.6175 49.1509 33.0202C48.7523 33.3865 48.3301 33.7389 47.8945 34.0775H51.9791C53.0793 34.0789 54.1218 34.5685 54.8262 35.4133C55.5306 36.2581 55.8243 37.3717 55.628 38.4544L51.4507 61.3171H56.138C57.1177 61.3171 58.0719 61.0067 58.8646 60.4308C59.6568 59.8543 60.2462 59.0423 60.5482 58.1102L63.6378 48.5794C64.157 46.9826 64.1177 45.2565 63.5265 43.6851L63.5264 43.6846Z" fill="#E9EDF7"/>
<path d="M51.0976 37.7891H12.902C12.6849 37.7891 12.4789 37.8856 12.3399 38.0523C12.2009 38.2191 12.1427 38.4389 12.1819 38.6528L16.3186 61.3216H47.6808L51.8175 38.6528C51.8567 38.4389 51.7985 38.2191 51.6595 38.0523C51.5205 37.8856 51.3145 37.7891 51.0974 37.7891H51.0976ZM31.9998 51.9879C29.4178 51.9879 27.3245 50.8983 27.3245 49.5547C27.3245 48.211 29.4178 47.1214 31.9998 47.1214C34.5818 47.1214 36.6751 48.2106 36.6751 49.5547C36.6746 50.8988 34.5818 51.9879 31.9998 51.9879Z" fill="#E9EDF7"/>
</svg>
