<svg width="33" height="32" viewBox="0 0 33 32" fill="none" xmlns="http://www.w3.org/2000/svg">
<path d="M25.833 14.6663H17.833V6.66634C17.833 6.31272 17.6925 5.97358 17.4425 5.72353C17.1924 5.47348 16.8533 5.33301 16.4997 5.33301C16.1461 5.33301 15.8069 5.47348 15.5569 5.72353C15.3068 5.97358 15.1663 6.31272 15.1663 6.66634V14.6663H7.16634C6.81272 14.6663 6.47358 14.8068 6.22353 15.0569C5.97348 15.3069 5.83301 15.6461 5.83301 15.9997C5.83301 16.3533 5.97348 16.6924 6.22353 16.9425C6.47358 17.1925 6.81272 17.333 7.16634 17.333H15.1663V25.333C15.1663 25.6866 15.3068 26.0258 15.5569 26.2758C15.8069 26.5259 16.1461 26.6663 16.4997 26.6663C16.8533 26.6663 17.1924 26.5259 17.4425 26.2758C17.6925 26.0258 17.833 25.6866 17.833 25.333V17.333H25.833C26.1866 17.333 26.5258 17.1925 26.7758 16.9425C27.0259 16.6924 27.1663 16.3533 27.1663 15.9997C27.1663 15.6461 27.0259 15.3069 26.7758 15.0569C26.5258 14.8068 26.1866 14.6663 25.833 14.6663Z" fill="#1294F2"/>
</svg>
