<svg width="25" height="24" viewBox="0 0 25 24" fill="none" xmlns="http://www.w3.org/2000/svg">
<path d="M18.4099 5.00019H6.40994L7.70994 3.71019C7.89824 3.52188 8.00403 3.26649 8.00403 3.00019C8.00403 2.73388 7.89824 2.47849 7.70994 2.29019C7.52164 2.10188 7.26624 1.99609 6.99994 1.99609C6.73364 1.99609 6.47824 2.10188 6.28994 2.29019L3.28994 5.29019C3.19621 5.38315 3.12182 5.49375 3.07105 5.61561C3.02028 5.73747 2.99414 5.86817 2.99414 6.00019C2.99414 6.1322 3.02028 6.2629 3.07105 6.38476C3.12182 6.50662 3.19621 6.61722 3.28994 6.71019L6.28994 9.71019C6.3829 9.80391 6.4935 9.87831 6.61536 9.92908C6.73722 9.97985 6.86793 10.006 6.99994 10.006C7.13195 10.006 7.26266 9.97985 7.38452 9.92908C7.50637 9.87831 7.61698 9.80391 7.70994 9.71019C7.80367 9.61722 7.87806 9.50662 7.92883 9.38476C7.9796 9.2629 8.00574 9.1322 8.00574 9.00019C8.00574 8.86817 7.9796 8.73747 7.92883 8.61561C7.87806 8.49375 7.80367 8.38315 7.70994 8.29019L6.40994 7.00019H18.4099C18.6148 6.99621 18.8185 7.03263 19.0093 7.10737C19.2 7.18212 19.3742 7.29372 19.5219 7.4358C19.6695 7.57788 19.7878 7.74766 19.8698 7.93544C19.9518 8.12321 19.996 8.32531 19.9999 8.53019V11.0002C19.9999 11.2654 20.1053 11.5198 20.2928 11.7073C20.4804 11.8948 20.7347 12.0002 20.9999 12.0002C21.2652 12.0002 21.5195 11.8948 21.707 11.7073C21.8946 11.5198 21.9999 11.2654 21.9999 11.0002V8.53019C21.996 8.06267 21.9 7.60052 21.7175 7.1701C21.535 6.73968 21.2694 6.34943 20.9361 6.02163C20.6027 5.69384 20.208 5.43492 19.7746 5.25966C19.3412 5.0844 18.8774 4.99623 18.4099 5.00019Z" fill="#1294F2"/>
<path d="M18.71 14.29C18.5217 14.1017 18.2663 13.9959 18 13.9959C17.7337 13.9959 17.4783 14.1017 17.29 14.29C17.1017 14.4783 16.9959 14.7337 16.9959 15C16.9959 15.2663 17.1017 15.5217 17.29 15.71L18.59 17H6.59C6.38513 17.004 6.18148 16.9676 5.99069 16.8928C5.79989 16.8181 5.6257 16.7065 5.47804 16.5644C5.33039 16.4223 5.21218 16.2525 5.13015 16.0647C5.04813 15.877 5.0039 15.6749 5 15.47V13C5 12.7348 4.89464 12.4804 4.70711 12.2929C4.51957 12.1054 4.26522 12 4 12C3.73478 12 3.48043 12.1054 3.29289 12.2929C3.10536 12.4804 3 12.7348 3 13V15.47C3.00392 15.9375 3.09989 16.3997 3.28244 16.8301C3.46498 17.2605 3.73051 17.6508 4.06388 17.9785C4.39724 18.3063 4.79191 18.5653 5.22534 18.7405C5.65878 18.9158 6.12249 19.004 6.59 19H18.59L17.29 20.29C17.1963 20.383 17.1219 20.4936 17.0711 20.6154C17.0203 20.7373 16.9942 20.868 16.9942 21C16.9942 21.132 17.0203 21.2627 17.0711 21.3846C17.1219 21.5064 17.1963 21.617 17.29 21.71C17.383 21.8037 17.4936 21.8781 17.6154 21.9289C17.7373 21.9797 17.868 22.0058 18 22.0058C18.132 22.0058 18.2627 21.9797 18.3846 21.9289C18.5064 21.8781 18.617 21.8037 18.71 21.71L21.71 18.71C21.8037 18.617 21.8781 18.5064 21.9289 18.3846C21.9797 18.2627 22.0058 18.132 22.0058 18C22.0058 17.868 21.9797 17.7373 21.9289 17.6154C21.8781 17.4936 21.8037 17.383 21.71 17.29L18.71 14.29Z" fill="#1294F2"/>
</svg>
