<svg width="16" height="16" viewBox="0 0 16 16" fill="none" xmlns="http://www.w3.org/2000/svg">
<path d="M15.2555 14.5525L15.6081 14.1979L15.6077 14.1976L15.2555 14.5525ZM11.1399 10.468L10.7942 10.1067L10.4236 10.4615L10.7877 10.8228L11.1399 10.468ZM10.7306 10.8243L11.0828 10.4694L10.768 10.157L10.4203 10.4322L10.7306 10.8243ZM14.8561 14.9189L15.2093 14.565L15.2083 14.564L14.8561 14.9189ZM15.2478 14.9263L15.5853 15.2951L15.586 15.2945L15.2478 14.9263ZM15.6077 14.1976L11.4921 10.1131L10.7877 10.8228L14.9033 14.9074L15.6077 14.1976ZM11.4856 10.8292C12.6267 9.7371 13.34 8.22435 13.34 6.55073H12.34C12.34 7.93213 11.7526 9.18946 10.7942 10.1067L11.4856 10.8292ZM13.34 6.55073C13.34 3.19198 10.4847 0.5 7.02352 0.5V1.5C9.97705 1.5 12.34 3.78782 12.34 6.55073H13.34ZM7.02352 0.5C3.56229 0.5 0.707031 3.19198 0.707031 6.55073H1.70703C1.70703 3.78782 4.06999 1.5 7.02352 1.5V0.5ZM0.707031 6.55073C0.707031 9.90948 3.56229 12.6015 7.02352 12.6015V11.6015C4.06999 11.6015 1.70703 9.31364 1.70703 6.55073H0.707031ZM7.02352 12.6015C8.54636 12.6015 9.94729 12.0817 11.0408 11.2164L10.4203 10.4322C9.49967 11.1607 8.31641 11.6015 7.02352 11.6015V12.6015ZM10.3783 11.1791L14.5039 15.2737L15.2083 14.564L11.0828 10.4694L10.3783 11.1791ZM14.5029 15.2727C14.6581 15.4276 14.861 15.5 15.0558 15.5V14.5C15.105 14.5 15.1627 14.5184 15.2093 14.565L14.5029 15.2727ZM15.0558 15.5C15.2427 15.5 15.4341 15.4335 15.5853 15.2951L14.9102 14.5574C14.9539 14.5174 15.0074 14.5 15.0558 14.5V15.5ZM15.586 15.2945C15.9057 15.0009 15.9164 14.5046 15.6081 14.1979L14.903 14.9071C14.8062 14.8109 14.8103 14.6491 14.9096 14.558L15.586 15.2945ZM7.02426 11.0715C4.37623 11.0715 2.26172 9.0208 2.26172 6.54943H1.26172C1.26172 9.61664 3.86853 12.0715 7.02426 12.0715V11.0715ZM2.26172 6.54943C2.26172 4.07807 4.37623 2.02734 7.02426 2.02734V1.02734C3.86853 1.02734 1.26172 3.48223 1.26172 6.54943H2.26172ZM7.02426 2.02734C9.67228 2.02734 11.7868 4.07807 11.7868 6.54943H12.7868C12.7868 3.48223 10.18 1.02734 7.02426 1.02734V2.02734ZM11.7868 6.54943C11.7868 9.02078 9.67202 11.0715 7.02426 11.0715V12.0715C10.1797 12.0715 12.7868 9.61666 12.7868 6.54943H11.7868Z" fill="#96A5B8"/>
</svg>
