<svg width="33" height="32" viewBox="0 0 33 32" fill="none" xmlns="http://www.w3.org/2000/svg">
<path d="M16.2998 21.3334C15.9883 21.334 15.6864 21.2255 15.4465 21.0268L7.44651 14.3601C7.17422 14.1338 7.00299 13.8085 6.97049 13.456C6.93798 13.1034 7.04686 12.7524 7.27318 12.4801C7.4995 12.2078 7.82471 12.0366 8.17728 12.0041C8.52985 11.9715 8.88089 12.0804 9.15318 12.3067L16.2998 18.2801L23.4465 12.5201C23.5829 12.4093 23.7398 12.3266 23.9083 12.2767C24.0767 12.2268 24.2534 12.2107 24.4281 12.2293C24.6028 12.2478 24.7721 12.3008 24.9263 12.385C25.0805 12.4692 25.2165 12.5831 25.3265 12.7201C25.4486 12.8572 25.5411 13.018 25.5982 13.1925C25.6552 13.367 25.6756 13.5514 25.6581 13.7342C25.6406 13.9169 25.5855 14.0941 25.4963 14.2546C25.4071 14.415 25.2858 14.5554 25.1398 14.6667L17.1398 21.1067C16.8931 21.2741 16.5973 21.3539 16.2998 21.3334Z" fill="#96A5B8"/>
</svg>
