<svg width="17" height="14" viewBox="0 0 17 14" fill="none" xmlns="http://www.w3.org/2000/svg">
<path d="M15.4999 3.99884H9.49981C9.14255 3.99884 8.81241 4.18952 8.63378 4.4989C8.45515 4.80828 8.45515 5.18947 8.63378 5.49886C8.81241 5.80825 9.14254 5.99892 9.49981 5.99892H15.4999C15.8571 5.99892 16.1873 5.80824 16.3659 5.49886C16.5445 5.18948 16.5445 4.80829 16.3659 4.4989C16.1873 4.18952 15.8571 3.99884 15.4999 3.99884ZM15.4999 11.9991H9.49981C9.14255 11.9991 8.81241 12.1896 8.63378 12.499C8.45515 12.8083 8.45515 13.1897 8.63378 13.4991C8.81241 13.8085 9.14254 13.999 9.49981 13.999H15.4999C15.8571 13.999 16.1873 13.8085 16.3659 13.4991C16.5445 13.1897 16.5445 12.8084 16.3659 12.499C16.1873 12.1896 15.8571 11.9991 15.4999 11.9991ZM15.4999 7.99909L5.4999 7.99892C5.14264 7.99892 4.81251 8.1896 4.63388 8.49898C4.45525 8.80836 4.45525 9.18955 4.63388 9.49894C4.81251 9.80833 5.14264 9.999 5.4999 9.999H15.4999C15.8571 9.999 16.1873 9.80832 16.3659 9.49894C16.5445 9.18956 16.5445 8.80837 16.3659 8.49898C16.1873 8.1896 15.8571 7.99892 15.4999 7.99892V7.99909ZM16.4998 0.999145L16.5 0.998978C16.5 0.733796 16.3945 0.479329 16.207 0.291827C16.0195 0.104325 15.7652 -0.000976562 15.4999 -0.000976562H1.5C1.14274 -0.000976562 0.812604 0.189538 0.633973 0.498915C0.455342 0.808296 0.455342 1.18965 0.633973 1.49904C0.812604 1.80842 1.14274 1.99893 1.5 1.99893H15.4999C15.7652 1.99893 16.0195 1.89363 16.207 1.70613C16.3945 1.51863 16.5 1.26418 16.5 0.998978L16.4998 0.999145Z" fill="#1B2559"/>
</svg>
