<svg width="11" height="17" viewBox="0 0 11 17" fill="none" xmlns="http://www.w3.org/2000/svg">
<path d="M10.4997 1.99816C10.4997 2.26334 10.3944 2.51781 10.2069 2.70531C10.0193 2.89281 9.76499 2.99811 9.49962 2.99811H8.2544L4.82582 14.9981H5.49967C5.85692 14.9981 6.18706 15.1888 6.36568 15.4982C6.54431 15.8076 6.54431 16.1887 6.36568 16.4981C6.18706 16.8075 5.85693 16.9982 5.49967 16.9982H3.50364L3.50062 16.9987L3.49727 16.9982H1.49974C1.14249 16.9982 0.812356 16.8075 0.633727 16.4981C0.455099 16.1887 0.455099 15.8076 0.633727 15.4982C0.812356 15.1888 1.14249 14.9981 1.49974 14.9981H2.74496L6.17354 2.99811H5.49969C5.14244 2.99811 4.8123 2.80743 4.63368 2.49805C4.45505 2.18867 4.45505 1.80749 4.63368 1.4981C4.8123 1.18872 5.14243 0.998047 5.49969 0.998047H9.49964C9.76499 0.998047 10.0193 1.10335 10.207 1.29085C10.3945 1.47851 10.4998 1.73279 10.4998 1.99816H10.4997Z" fill="#1B2559"/>
</svg>
