<svg width="13" height="16" viewBox="0 0 13 16" fill="none" xmlns="http://www.w3.org/2000/svg">
<path d="M9.61027 6.48293C10.182 5.78099 10.4959 4.90427 10.4997 3.99909C10.4987 2.93856 10.0768 1.9217 9.32703 1.17188C8.57704 0.422061 7.56035 0.000180567 6.49982 -0.000976562H1.49973C1.14248 -0.000976562 0.812352 0.189701 0.633726 0.499075C0.455099 0.808448 0.455099 1.18962 0.633726 1.49901C0.812352 1.80839 1.14248 1.99906 1.49973 1.99906H2.49983V13.9989H1.49973C1.14248 13.9989 0.812352 14.1896 0.633726 14.499C0.455099 14.8083 0.455099 15.1895 0.633726 15.4989C0.812352 15.8083 1.14248 15.999 1.49973 15.999H7.49966C9.02776 16.002 10.473 15.3047 11.4217 14.1069C12.3703 12.9089 12.7178 11.3423 12.3646 9.85575C12.0113 8.36901 10.9963 7.12617 9.61018 6.48298L9.61027 6.48293ZM8.49985 3.99909C8.49918 4.52927 8.28825 5.03768 7.9134 5.4125C7.5384 5.7875 7.03 5.99844 6.49982 5.99895H4.49978V1.99906H6.49982C7.03 1.99973 7.5384 2.2105 7.9134 2.58551C8.28823 2.9605 8.49917 3.46874 8.49985 3.99909ZM7.49975 13.9988H4.49978V7.9989H7.49975C8.57168 7.9989 9.56188 8.57078 10.0979 9.49889C10.6338 10.427 10.6338 11.5707 10.0979 12.4989C9.56188 13.427 8.57168 13.9988 7.49975 13.9988Z" fill="#1B2559"/>
</svg>
