<svg width="48" height="48" viewBox="0 0 48 48" fill="none" xmlns="http://www.w3.org/2000/svg">
<path d="M35.1224 42C34.8026 42.0013 34.4871 41.9258 34.2025 41.78L24.0025 36.44L13.8025 41.78C13.4712 41.9542 13.0978 42.0319 12.7246 42.0044C12.3514 41.9769 11.9934 41.8452 11.6913 41.6244C11.3892 41.4036 11.1551 41.1024 11.0157 40.7551C10.8762 40.4079 10.837 40.0285 10.9025 39.66L12.9025 28.4L4.66245 20.4C4.40537 20.1435 4.223 19.8217 4.13491 19.4694C4.04682 19.117 4.05634 18.7474 4.16245 18.4C4.27837 18.0446 4.49161 17.7287 4.77796 17.4883C5.0643 17.2479 5.4123 17.0926 5.78245 17.04L17.1825 15.38L22.2025 5.12001C22.3662 4.78187 22.6219 4.4967 22.9403 4.29716C23.2586 4.09762 23.6267 3.99179 24.0025 3.99179C24.3782 3.99179 24.7463 4.09762 25.0646 4.29716C25.383 4.4967 25.6387 4.78187 25.8025 5.12001L30.8825 15.36L42.2825 17.02C42.6526 17.0726 43.0006 17.2279 43.287 17.4683C43.5733 17.7087 43.7865 18.0246 43.9025 18.38C44.0086 18.7274 44.0181 19.097 43.93 19.4494C43.8419 19.8017 43.6595 20.1235 43.4025 20.38L35.1625 28.38L37.1625 39.64C37.2339 40.015 37.1965 40.4025 37.0547 40.7569C36.913 41.1113 36.6727 41.4177 36.3625 41.64C36.0003 41.8938 35.5642 42.0204 35.1224 42Z" fill="#1294F2"/>
</svg>
